<svg width="400" height="250" viewBox="0 0 400 250" fill="none" xmlns="http://www.w3.org/2000/svg">
<rect width="400" height="250" fill="#C4976E"/>
<path d="M139.855 156.697C139.855 145.171 136.493 131.964 131.691 131.964C131.691 131.964 131.211 130.043 125.207 134.365C121.125 137.247 113.441 153.095 112.48 159.099C112 161.5 112 159.339 112 164.862C112 169.664 116.562 189.355 116.562 189.355H139.855V156.697Z" fill="#FFE68C"/>
<path d="M164.349 148.773C164.349 140.369 161.467 130.763 153.543 130.763H134.332C126.408 130.763 122.806 140.369 122.806 148.773V198H164.349V148.773Z" fill="#FFE68C"/>
<path d="M150.181 120.678H136.253V137.967H150.181V120.678Z" fill="#FFE68C"/>
<path d="M143.217 142.05L140.335 137.727L137.454 133.165H143.217H148.98L146.099 137.727L143.217 142.05Z" fill="#C4976E"/>
<path d="M143.217 171.346L139.615 166.063L136.253 161.02L143.217 141.329L150.181 161.02L146.579 166.063L143.217 171.346Z" fill="#C4976E"/>
<path d="M176.115 163.902L166.51 169.184L150.181 143.49L159.066 132.925L176.115 163.902Z" fill="#FFE68C"/>
<path d="M194.125 175.428C192.684 178.309 192.444 182.872 189.802 181.431L168.191 170.865C165.549 169.665 164.829 165.582 166.27 162.941C167.71 160.059 170.832 159.099 173.474 160.299L194.125 170.625C196.526 172.066 194.125 175.428 194.125 175.428Z" fill="#FFE68C"/>
<path d="M195.326 183.592C198.928 185.513 202.049 184.793 203.25 182.391C204.691 179.99 203.73 176.868 200.128 174.947C196.526 173.026 190.763 172.306 189.322 174.707C188.122 177.109 191.724 181.671 195.326 183.592Z" fill="#FFE68C"/>
<path d="M196.767 171.826C194.605 171.586 191.003 173.026 191.003 174.467C190.763 175.908 194.365 176.628 196.286 176.869C198.447 177.109 201.809 175.428 201.809 173.987C202.049 172.546 198.928 172.066 196.767 171.826Z" fill="#FFE68C"/>
<path d="M119.925 190.076C119.925 194.158 122.086 196.319 124.967 196.559C127.849 196.559 130.01 194.398 130.01 190.316C130.01 186.234 127.849 180.711 125.207 180.711C122.086 180.711 119.925 185.993 119.925 190.076Z" fill="#FFE68C"/>
<path d="M130.731 185.753C130.01 183.832 126.888 181.431 125.688 181.911C124.487 182.391 125.448 185.753 126.168 187.674C126.888 189.595 130.25 191.756 131.451 191.276C132.652 190.556 131.691 187.674 130.731 185.753Z" fill="#FFE68C"/>
<path d="M143.217 130.523C136.493 130.523 132.651 128.122 130.01 115.155C129.049 110.352 130.01 105.55 132.411 102.428C134.332 100.026 136.973 98.5857 143.217 98.5857H143.697C148.74 98.5857 152.102 99.5462 154.023 101.467C156.664 104.109 156.424 108.431 156.424 112.753C156.424 113.714 156.424 114.434 156.424 115.395C156.184 125.721 149.22 130.523 143.217 130.523Z" fill="#FFE68C"/>
<path d="M260.401 156.697C260.401 145.171 263.763 131.964 268.566 131.964C268.566 131.964 269.046 130.043 275.049 134.365C279.132 137.247 286.816 153.095 287.776 159.099C288.017 161.5 288.257 159.339 288.257 164.862C288.257 169.664 283.694 189.355 283.694 189.355H260.401V156.697Z" fill="#FFE68C"/>
<path d="M235.908 148.773C235.908 140.369 238.79 130.763 246.714 130.763H265.924C273.849 130.763 277.451 140.369 277.451 148.773V198H235.908V148.773Z" fill="#FFE68C"/>
<path d="M264.003 120.678H250.076V137.967H264.003V120.678Z" fill="#FFE68C"/>
<path d="M257.04 142.05L259.921 137.727L264.484 131.724L257.04 134.125L249.595 131.724L254.158 137.727L257.04 142.05Z" fill="#C4976E"/>
<path d="M224.141 163.902L233.747 169.184L250.076 143.49L241.191 132.925L224.141 163.902Z" fill="#FFE68C"/>
<path d="M206.132 175.428C207.572 178.309 207.813 182.872 210.454 181.431L232.066 170.865C234.707 169.665 235.428 165.582 233.987 162.941C232.546 160.059 229.424 159.099 226.783 160.299L206.132 170.625C203.73 172.066 206.132 175.428 206.132 175.428Z" fill="#FFE68C"/>
<path d="M204.931 183.592C201.329 185.513 198.207 184.793 197.007 182.391C195.566 179.99 196.526 176.868 200.128 174.947C203.73 173.026 209.494 172.306 210.934 174.707C212.135 177.109 208.533 181.671 204.931 183.592Z" fill="#FFE68C"/>
<path d="M203.49 171.826C205.651 171.586 209.253 173.026 209.253 174.467C209.493 175.908 205.891 176.628 203.97 176.869C201.809 177.109 198.447 175.428 198.447 173.987C198.207 172.546 201.329 172.066 203.49 171.826Z" fill="#FFE68C"/>
<path d="M281.773 190.556C281.533 194.638 278.891 196.559 276.25 196.319C273.608 196.079 271.447 193.678 271.928 189.595C272.168 185.513 275.049 180.47 277.691 180.47C280.332 180.951 282.253 186.714 281.773 190.556Z" fill="#FFE68C"/>
<path d="M271.207 185.273C272.168 183.592 275.53 181.431 276.731 181.911C277.931 182.632 276.731 185.753 275.53 187.674C274.569 189.595 271.207 191.276 270.007 190.556C268.806 190.076 270.247 186.954 271.207 185.273Z" fill="#FFE68C"/>
<path d="M257.039 130.523C263.763 130.523 267.605 128.122 270.247 115.155C271.207 110.352 270.247 105.55 267.845 102.428C265.924 100.026 263.283 98.5857 257.039 98.5857H256.559C251.516 98.5857 248.154 99.5462 246.233 101.467C243.592 104.109 243.832 108.431 243.832 112.753C243.832 113.714 243.832 114.434 243.832 115.395C244.072 125.721 251.036 130.523 257.039 130.523Z" fill="#FFE68C"/>
<path d="M260.401 149.974C260.401 151.655 258.96 153.095 257.28 153.095C255.599 153.095 253.918 151.655 253.918 149.974C253.918 148.293 255.359 146.612 257.28 146.612C258.96 146.612 260.401 148.053 260.401 149.974Z" fill="#C4976E"/>
<path d="M260.401 162.461C260.401 164.142 258.96 165.582 257.28 165.582C255.599 165.582 253.918 164.142 253.918 162.461C253.918 160.78 255.359 159.339 257.28 159.339C258.96 159.099 260.401 160.78 260.401 162.461Z" fill="#C4976E"/>
<path d="M260.401 174.948C260.401 176.628 258.96 178.309 257.28 178.309C255.599 178.309 253.918 176.869 253.918 174.948C253.918 173.267 255.359 171.826 257.28 171.826C258.96 171.826 260.401 173.267 260.401 174.948Z" fill="#C4976E"/>
<path d="M203.01 68.8091C202.049 68.8091 201.329 68.569 200.128 68.8091C198.927 68.569 198.207 68.8091 197.246 68.8091C187.161 70.0098 180.677 80.5756 183.799 90.1808C184.76 92.5821 185.96 94.9835 187.161 97.3848C188.842 100.266 189.802 103.388 190.523 106.75C190.763 108.431 190.763 109.391 191.243 110.832H208.773C209.253 109.391 209.253 108.431 209.493 106.75C210.214 103.388 211.174 100.266 212.855 97.3848C214.056 94.9835 215.496 92.8223 216.217 90.1808C219.579 80.5756 213.095 70.0098 203.01 68.8091Z" fill="#C4976E"/>
<path d="M209.974 112.513H190.043L189.562 111.313C189.322 110.112 189.082 109.392 189.082 108.431C189.082 107.951 189.082 107.471 188.842 106.99C188.122 103.869 187.161 100.987 185.72 98.1054L185.24 96.9048C184.28 94.9837 183.079 92.8225 182.359 90.6613C180.678 85.6186 181.158 80.0956 184.28 75.2929C186.921 70.7304 191.724 67.8488 197.007 67.1285C197.487 67.1285 197.727 67.1285 197.967 67.1285C198.687 67.1285 199.168 66.8883 200.128 67.1285C200.849 67.1285 201.569 67.1285 202.289 67.1285C202.53 67.1285 202.77 67.1285 203.25 67.1285C208.773 67.8488 213.335 70.7304 216.217 75.2929C219.099 79.8554 219.819 85.6186 218.138 90.6613C217.418 92.8225 216.217 94.7436 215.257 96.6646L214.536 97.8653C213.095 100.747 211.895 103.628 211.414 106.75C211.414 107.23 211.174 107.711 211.174 108.191C211.174 108.911 210.934 109.872 210.694 111.073L209.974 112.513ZM192.684 109.151H207.572C207.572 108.911 207.572 108.431 207.812 108.191C207.812 107.711 208.053 107.23 208.053 106.51C208.773 103.148 209.974 99.7863 211.655 96.6646L212.375 95.464C213.335 93.5429 214.296 91.862 215.016 89.941C216.457 85.8587 215.977 81.2962 213.576 77.4541C211.174 73.612 207.332 71.2107 203.01 70.7304C202.77 70.7304 202.53 70.7304 202.049 70.7304C201.569 70.7304 201.089 70.7304 200.609 70.7304H200.368H200.128C199.408 70.7304 198.928 70.7304 198.447 70.7304C198.207 70.7304 197.727 70.7304 197.247 70.7304C192.924 70.9706 189.322 73.3719 186.921 77.214C184.52 81.0561 184.039 85.6186 185.48 89.7008C186.201 91.6219 187.161 93.5429 188.122 95.464L188.842 96.6646C190.523 99.7863 191.724 103.148 192.444 106.51C192.684 107.23 192.684 107.711 192.684 108.191C192.444 108.431 192.444 108.671 192.684 109.151Z" fill="#FFE68C"/>
<path d="M197.967 110.832C197.967 110.592 197.247 104.829 198.928 104.109C198.928 103.628 199.648 100.267 198.928 97.6251C198.688 97.6251 198.207 97.1448 198.207 96.9047C198.207 96.6646 198.447 96.4244 200.128 96.4244V96.6646C198.688 96.6646 198.447 96.9047 198.447 96.9047C198.447 97.1448 198.688 97.385 198.928 97.385C199.648 100.026 198.928 103.869 198.928 103.869C197.487 104.589 198.207 110.592 197.967 110.832Z" fill="#FFE68C"/>
<path d="M202.289 110.832C202.049 110.832 202.77 104.829 201.329 104.109C201.329 104.109 200.608 100.267 201.329 97.6252C201.569 97.3851 201.809 97.1449 201.809 97.1449C201.809 97.1449 201.569 96.9048 200.128 96.9048V96.6647C201.569 96.6647 201.809 96.9048 202.049 97.1449C202.049 97.3851 201.569 97.8653 201.329 97.8653C200.608 100.507 201.329 103.869 201.329 104.349C202.77 104.589 202.289 110.592 202.289 110.832Z" fill="#FFE68C"/>
<path d="M198.688 104.349C198.447 103.868 193.885 93.0625 194.605 91.6217L194.845 91.3816C196.286 91.1415 197.487 91.1415 198.688 91.1415C199.168 91.1415 199.648 91.1415 200.128 91.1415V91.3816C199.648 91.3816 199.168 91.3816 198.688 91.3816C197.487 91.3816 196.286 91.3816 194.845 91.6217C194.845 91.6217 194.845 91.6217 194.605 91.6217C193.885 93.0625 198.688 104.349 198.688 104.349Z" fill="#FFE68C"/>
<path d="M201.569 104.349C201.569 104.109 206.132 93.0625 205.411 91.6217C205.411 91.6217 205.411 91.6217 205.171 91.6217C203.73 91.3816 202.29 91.3816 201.089 91.3816C200.609 91.3816 200.128 91.3816 199.648 91.3816V91.1415C200.128 91.1415 200.609 91.1415 201.089 91.1415C202.29 91.1415 203.73 91.1415 205.171 91.3816C205.171 91.3816 205.411 91.3816 205.411 91.6217C206.372 93.0625 201.809 103.868 201.569 104.349Z" fill="#FFE68C"/>
<path d="M200.369 105.55H199.648V110.592H200.369V105.55Z" fill="#FFE68C"/>
<path d="M200.128 105.789C199.168 105.789 198.448 105.789 198.448 105.069V104.589C198.448 104.108 199.168 103.628 200.128 103.628C201.089 103.628 201.809 104.108 201.809 104.589V105.069C201.809 105.789 200.849 105.789 200.128 105.789ZM200.128 103.868C199.168 103.868 198.688 104.349 198.688 104.829V105.309C198.688 105.789 199.168 105.789 200.128 105.789C201.329 105.789 201.569 105.549 201.569 105.309V104.829C201.569 104.108 200.849 103.868 200.128 103.868Z" fill="#FFE68C"/>
<path d="M196.046 124.52C195.806 125 196.766 125.72 197.246 125.96C198.207 126.681 199.167 126.681 199.888 126.681C200.848 126.681 201.809 126.681 202.769 125.96C203.49 125.48 203.97 124.52 203.97 124.52H196.046Z" fill="#FFE68C"/>
<path fill-rule="evenodd" clip-rule="evenodd" d="M209.253 114.194C209.253 114.914 209.253 115.395 208.773 115.395L191.483 116.355C191.003 116.355 190.763 115.875 190.763 115.155C190.763 114.434 190.523 113.234 191.003 113.234H208.533C209.013 113.474 209.253 113.474 209.253 114.194Z" fill="#FFE68C"/>
<path fill-rule="evenodd" clip-rule="evenodd" d="M209.013 117.796C209.013 118.517 208.773 118.997 208.293 118.997L191.483 119.957C191.003 119.957 190.763 119.477 190.763 118.757C190.763 118.276 191.003 117.556 191.483 117.556L208.293 116.595C208.773 116.595 209.013 117.076 209.013 117.796Z" fill="#FFE68C"/>
<path d="M196.526 125.24C197.007 125.24 197.247 125.24 197.487 125.24H202.77C203.01 125.24 203.01 125.24 203.49 125.24C204.931 125.24 206.132 124.76 207.092 123.799C207.812 123.079 208.293 122.118 208.533 120.918L191.724 121.638C191.964 122.839 192.444 123.319 192.924 124.039C193.885 124.52 194.845 125 196.526 125.24Z" fill="#FFE68C"/>
<path d="M179.237 88.7403C179.237 88.7403 178.997 88.9805 178.756 89.4607C178.516 89.7009 178.516 89.941 178.276 90.1811C178.276 90.4213 178.036 90.4213 178.036 90.6614H177.796H177.556C176.355 90.9015 174.674 91.1416 173.233 91.3818C171.553 91.6219 170.112 91.862 168.911 92.1022H168.671H168.431C168.191 92.1022 168.191 91.862 167.951 91.862C167.71 91.6219 167.47 91.6219 167.23 91.3818C166.75 91.1416 166.51 90.9015 166.51 90.9015C166.51 90.9015 166.75 90.6614 166.99 90.1811C167.23 89.941 167.23 89.7009 167.47 89.4607C167.47 89.2206 167.71 89.2206 167.71 88.9805H167.951H168.191C169.391 88.7403 171.072 88.5002 172.513 88.2601C174.194 88.0199 175.635 87.7798 176.835 87.5397H177.076H177.316C177.556 87.5397 177.556 87.7798 177.796 87.7798C178.036 88.0199 178.276 88.0199 178.516 88.2601C178.997 88.5002 179.237 88.7403 179.237 88.7403Z" fill="#FFE68C"/>
<path d="M179.717 79.615C179.717 79.615 179.477 79.8551 178.997 80.0952C178.756 80.0952 178.516 80.3354 178.276 80.5755C178.036 80.5755 178.036 80.8156 177.796 80.8156H177.556H177.316C176.115 80.5755 174.674 80.0952 172.993 79.615C171.552 79.1347 169.872 78.6544 168.671 78.4143H168.431H168.191C168.191 78.1742 167.951 78.1742 167.951 77.9341C167.71 77.6939 167.71 77.4538 167.47 77.2137C167.23 76.7334 166.99 76.4933 166.99 76.4933C166.99 76.4933 167.23 76.2531 167.71 76.013C167.951 76.013 168.191 75.7729 168.431 75.5327C168.671 75.5327 168.671 75.2926 168.911 75.2926H169.151H169.391C170.592 75.5327 172.033 76.013 173.714 76.4933C175.154 76.9735 176.835 77.4538 178.036 77.6939H178.276H178.516C178.516 77.934 178.756 77.934 178.756 78.1742C178.997 78.4143 178.997 78.6544 179.237 78.8946C179.477 79.3748 179.717 79.615 179.717 79.615Z" fill="#FFE68C"/>
<path d="M183.559 71.6909C183.559 71.6909 183.319 71.6909 182.839 71.6909C182.599 71.6909 182.359 71.6909 181.878 71.6909C181.638 71.6909 181.638 71.6909 181.398 71.6909C181.398 71.6909 181.158 71.6909 181.158 71.4508C181.158 71.4508 181.158 71.4508 180.918 71.2107C179.957 70.2501 178.997 69.2896 177.796 68.089C176.596 66.8883 175.395 65.9278 174.674 64.9673C174.674 64.9673 174.674 64.9673 174.434 64.7271C174.434 64.7271 174.434 64.7271 174.434 64.487C174.434 64.2469 174.434 64.2469 174.434 64.0067C174.434 63.7666 174.434 63.2863 174.434 63.0462C174.434 62.5659 174.434 62.3258 174.434 62.3258C174.434 62.3258 174.674 62.3258 175.155 62.3258C175.395 62.3258 175.635 62.3258 176.115 62.3258C176.355 62.3258 176.355 62.3258 176.596 62.3258H176.836C176.836 62.3258 176.836 62.3258 177.076 62.5659C178.036 63.5265 178.997 64.487 180.197 65.6876C181.398 66.8883 182.599 67.8488 183.319 68.8094C183.319 68.8094 183.319 68.8094 183.559 69.0495C183.559 69.0495 183.799 69.0495 183.799 69.2896C183.799 69.5298 183.799 69.5298 183.799 69.7699C183.799 70.01 183.799 70.4903 183.799 70.7304C183.559 71.4508 183.559 71.6909 183.559 71.6909Z" fill="#FFE68C"/>
<path d="M190.763 66.8883C190.763 66.8883 190.523 66.8883 190.043 66.6481C189.803 66.6481 189.562 66.408 189.322 66.408C189.082 66.408 189.082 66.1679 188.842 66.1679C188.842 66.1679 188.842 66.1679 188.842 65.9277V65.6876C188.362 64.487 187.641 63.0462 187.161 61.6054C186.441 60.1646 185.96 58.7238 185.48 57.5231V57.283C185.48 57.283 185.48 57.283 185.48 57.0429C185.48 56.8027 185.48 56.8027 185.72 56.5626C185.72 56.3225 185.96 56.0824 185.96 55.8422C186.201 55.362 186.201 55.1218 186.201 55.1218C186.201 55.1218 186.441 55.1218 186.921 55.362C187.161 55.362 187.401 55.6021 187.641 55.6021C187.882 55.6021 187.882 55.8422 188.122 55.8422C188.122 55.8422 188.362 55.8422 188.122 56.0824V56.3225C188.602 57.5231 189.322 58.9639 189.803 60.4047C190.523 61.8455 191.003 63.2863 191.484 64.487V64.7271C191.484 64.7271 191.484 64.7271 191.484 64.9672C191.484 65.2074 191.484 65.2074 191.243 65.4475C191.243 65.6876 191.003 65.9277 191.003 66.1679C191.003 66.408 190.763 66.8883 190.763 66.8883Z" fill="#FFE68C"/>
<path d="M200.609 64.9671C200.609 64.9671 200.369 64.727 199.888 64.4868C199.648 64.2467 199.408 64.0066 199.168 63.7664C199.168 63.7664 198.928 63.5263 198.928 63.2862V63.0461V62.8059C198.928 61.6053 198.928 59.9243 198.688 58.4836C198.688 56.8026 198.688 55.3618 198.448 54.1612V53.9211V53.6809C198.688 53.4408 198.928 53.4408 198.928 53.2007C199.168 52.9605 199.408 52.7204 199.408 52.4803C199.888 52.2401 200.128 52 200.128 52C200.128 52 200.369 52.2401 200.849 52.4803C201.089 52.7204 201.329 52.9605 201.569 53.2007C201.569 53.4408 201.809 53.4408 202.049 53.6809V53.9211V54.1612C202.049 55.3618 202.049 57.0428 202.29 58.4836C202.29 60.1645 202.29 61.6053 202.53 62.8059V63.0461V63.2862C202.29 63.5263 202.29 63.5263 202.29 63.7664C201.569 64.0066 201.329 64.0066 201.089 64.2467C200.849 64.727 200.609 64.9671 200.609 64.9671Z" fill="#FFE68C"/>
<path d="M220.78 88.7403C220.78 88.7403 221.02 88.5002 221.5 88.2601C221.74 88.0199 221.98 88.0199 222.22 87.7798C222.46 87.7798 222.46 87.5397 222.701 87.5397H222.941H223.181C224.382 87.7798 226.062 88.0199 227.503 88.2601C229.184 88.5002 230.625 88.7403 231.826 88.9805H232.066H232.306C232.306 89.2206 232.546 89.2206 232.546 89.4607C232.786 89.7009 233.026 89.941 233.026 90.1811C233.266 90.6614 233.507 90.9015 233.507 90.9015C233.507 90.9015 233.266 91.1416 232.786 91.3818C232.546 91.6219 232.306 91.6219 232.066 91.862C231.826 91.862 231.826 92.1022 231.585 92.1022H231.345H231.105C229.905 91.862 228.224 91.6219 226.783 91.3818C225.102 91.1416 223.661 90.9015 222.46 90.6614H222.22H221.98C221.98 90.4213 221.74 90.4213 221.74 90.1811C221.5 89.941 221.26 89.7009 221.26 89.4607C220.78 88.9805 220.78 88.7403 220.78 88.7403Z" fill="#FFE68C"/>
<path d="M220.539 79.615C220.539 79.615 220.779 79.3748 220.779 78.8946C220.779 78.6544 221.02 78.4143 221.26 78.1742C221.26 77.934 221.5 77.934 221.5 77.6939C221.5 77.6939 221.5 77.6939 221.74 77.6939H221.98C223.181 77.4538 224.622 76.9735 226.302 76.4933C227.743 76.013 229.424 75.5327 230.625 75.2926H230.865H231.105C231.345 75.2926 231.345 75.5327 231.585 75.5327C231.825 75.7729 232.066 75.7729 232.306 76.013C232.546 75.7729 232.786 76.013 232.786 76.013C232.786 76.013 232.546 76.2531 232.306 76.7334C232.066 76.9735 232.066 77.2137 231.825 77.4538C231.825 77.6939 231.585 77.6939 231.585 77.9341C231.585 77.9341 231.585 77.9341 231.345 77.9341H231.105C229.904 78.1742 228.464 78.6544 226.783 79.1347C225.342 79.615 223.661 80.0952 222.46 80.3354H222.22H221.98C221.74 80.3354 221.74 80.0952 221.5 80.0952C221.26 79.8551 221.02 79.8551 220.779 79.615C220.779 79.8551 220.539 79.615 220.539 79.615Z" fill="#FFE68C"/>
<path d="M216.457 71.6909C216.457 71.6909 216.457 71.4508 216.457 70.9705C216.457 70.7304 216.457 70.4903 216.457 70.01C216.457 69.7699 216.457 69.7699 216.457 69.5297C216.457 69.5297 216.457 69.2896 216.697 69.2896C216.697 69.2896 216.697 69.2896 216.938 69.0495C217.898 68.0889 218.859 67.1284 220.059 65.9278C221.26 64.7271 222.461 63.7666 223.181 62.806C223.181 62.806 223.181 62.806 223.421 62.5659C223.421 62.5659 223.421 62.5659 223.661 62.5659C223.901 62.5659 223.901 62.5659 224.141 62.5659C224.382 62.5659 224.862 62.5659 225.102 62.5659C225.582 62.5659 225.822 62.5659 225.822 62.5659C225.822 62.5659 225.822 62.806 225.822 63.2863C225.822 63.5264 225.822 63.7666 225.822 64.2468C225.822 64.487 225.822 64.487 225.822 64.7271C225.822 64.7271 225.822 64.9672 225.582 64.9672C225.582 64.9672 225.582 64.9672 225.342 65.2074C224.382 66.1679 223.421 67.1284 222.22 68.3291C221.02 69.5297 219.819 70.4903 219.099 71.4508C219.099 71.4508 219.099 71.4508 218.859 71.6909C218.859 71.6909 218.859 71.9311 218.618 71.9311C218.378 71.9311 218.138 71.9311 218.138 71.9311C217.898 71.9311 217.418 71.9311 217.178 71.9311C216.938 71.6909 216.457 71.6909 216.457 71.6909Z" fill="#FFE68C"/>
<path d="M209.253 66.8883C209.253 66.8883 209.013 66.6481 209.013 66.1679C209.013 65.9277 208.773 65.6876 208.773 65.4475C208.773 65.2074 208.773 65.2074 208.533 64.9672V64.7271V64.487C209.013 63.2863 209.733 61.8455 210.214 60.4047C210.934 58.9639 211.414 57.5231 211.895 56.3225V56.0824V55.8422C212.135 55.8422 212.135 55.6021 212.375 55.6021C212.615 55.362 212.855 55.362 213.095 55.362C213.575 55.1218 213.816 55.1218 213.816 55.1218C213.816 55.1218 214.056 55.362 214.056 55.8422C214.056 56.0824 214.296 56.3225 214.296 56.5626C214.296 56.8027 214.296 56.8027 214.536 57.0429V57.283V57.5231C214.536 58.4837 213.816 59.9245 213.335 61.6054C212.615 63.0462 212.135 64.487 211.654 65.6876V65.9277V66.1679C211.414 66.1679 211.414 66.408 211.174 66.408C210.694 66.408 210.214 66.408 209.974 66.6481C209.493 66.6481 209.253 66.8883 209.253 66.8883Z" fill="#FFE68C"/>
</svg>
