<svg width="400" height="186" viewBox="0 0 400 186" fill="none" xmlns="http://www.w3.org/2000/svg">
<rect width="400" height="186" fill="#C4976E"/>
<path d="M243.857 150.826C243.857 150.826 246.885 97.4825 248.175 96.1198C249.465 94.7571 252.617 92.6511 253.982 90.669C255.346 88.6869 255.471 86.457 257.282 84.5492C259.118 82.6414 260.036 81.4769 260.83 79.7922C261.451 78.479 260.359 77.0915 259.59 76.5217C258.82 75.9518 257.803 75.605 256.587 76.2739C257.207 74.9608 259.118 71.3187 257.009 69.7825C254.875 68.2464 253.188 69.7082 253.188 69.7082C253.188 69.7082 256.389 57.5926 257.307 54.4708C258.225 51.3489 258.448 48.4006 256.711 47.8059C254.478 47.0379 253.386 49.243 252.096 52.9099C250.781 56.6015 247.009 66.7103 246.81 67.5279C246.612 68.3455 244.875 68.5685 244.751 67.2306C244.627 65.8926 242.642 49.02 242.269 46.7901C241.897 44.5602 237.927 43.0737 237.48 47.1865C237.033 51.2994 238.001 65.1989 237.877 67.2801C237.753 69.3861 237.505 70.6249 236.388 75.6793C232.641 79.8169 233.237 85.5898 233.609 87.1259C234.304 90.0991 236.488 91.3627 236.388 92.0317C236.289 92.7254 224.453 147.531 224.453 147.531C224.453 147.531 227.927 151.445 233.287 152.511C238.622 153.626 243.857 150.826 243.857 150.826Z" fill="#FFE68C"/>
<path d="M248.746 69.0393C248.423 68.8411 248.002 68.7667 247.629 68.6676C247.232 68.5685 246.835 68.4694 246.463 68.3703C245.644 68.1969 244.801 68.0978 243.957 68.073C243.957 68.073 243.932 68.0978 243.957 68.0978C244.751 68.2217 245.545 68.3703 246.339 68.5685C246.761 68.6676 247.183 68.7667 247.58 68.8906C247.927 68.9897 248.299 69.1879 248.672 69.2375C248.746 69.1879 248.82 69.0888 248.746 69.0393Z" fill="#C4976E"/>
<path d="M255.967 85.2678C255.247 85.8377 254.503 86.3827 253.734 86.8783C252.94 87.3738 252.121 87.9189 251.178 88.1171C250.359 88.2657 249.391 88.0923 248.92 87.349C248.696 87.0021 248.597 86.5562 248.622 86.1597C248.622 85.8129 248.746 85.5156 248.845 85.1935C249.366 84.8466 249.838 84.4254 250.26 84.0042C251.277 83.0131 252.245 81.9478 253.188 80.8576C254.304 79.5692 255.371 78.2065 256.339 76.7943C256.364 76.7447 256.314 76.72 256.289 76.7447C255.272 78.0331 254.23 79.2967 253.163 80.5355C252.121 81.7496 251.029 82.9884 249.838 84.0785C249.292 84.5741 248.671 85.1191 247.977 85.3917C247.282 85.6642 246.537 85.5651 245.892 85.2182C244.577 84.4997 244.379 82.9388 244.924 81.6752C245.049 81.6752 245.173 81.7 245.297 81.7C245.694 81.7248 246.091 81.7 246.463 81.6009C246.413 81.6505 246.364 81.6752 246.314 81.7248C246.066 81.923 245.867 82.146 245.669 82.369C245.47 82.592 245.247 82.8645 245.173 83.1618C245.173 83.1866 245.173 83.1866 245.197 83.2114C245.197 83.2114 245.197 83.2114 245.197 83.2361C245.297 83.4839 245.47 83.6821 245.669 83.8555C245.867 84.0538 246.066 84.2272 246.264 84.4006C246.488 84.5741 246.711 84.6979 246.934 84.8218C247.059 84.8961 247.183 84.9457 247.307 84.9953C247.431 85.0448 247.555 85.1191 247.704 85.0696C247.753 85.0696 247.803 85.0696 247.853 85.02C248.25 84.5493 248.597 84.029 248.87 83.4839C249.118 82.9884 249.267 82.4185 249.044 81.8982C248.845 81.4027 248.374 81.1301 247.853 81.1054C247.803 81.1054 247.753 81.1054 247.704 81.1054C248.175 80.8081 248.82 80.2134 248.721 79.6436C248.597 78.9498 247.927 78.2561 247.456 77.7606C247.356 77.6615 247.257 77.5624 247.158 77.4633C247.158 77.4633 247.183 77.4633 247.183 77.4385C248.15 76.1501 249.143 74.8617 250.16 73.5734C250.657 72.954 251.153 72.3346 251.649 71.6904C252.17 71.0462 252.741 70.4516 253.212 69.7826C253.237 69.7578 253.212 69.733 253.188 69.7578C252.592 70.2781 252.071 70.9223 251.55 71.5169C251.004 72.1116 250.483 72.7062 249.987 73.3256C248.944 74.614 247.952 75.9271 246.984 77.265C246.513 76.7943 246.016 76.3483 245.52 75.9271C244.8 75.3325 244.056 74.7874 243.262 74.2919C242.493 73.8211 241.649 73.3999 240.756 73.3256C239.019 73.2017 237.381 74.3662 236.413 75.7041C236.339 75.828 236.488 75.9519 236.587 75.8528C237.505 74.8617 238.572 73.8955 239.986 73.7468C241.624 73.5982 243.088 74.5644 244.403 75.4564C244.9 75.8032 245.421 76.1501 245.917 76.5218C245.52 76.5961 245.222 76.943 245.123 77.3394C244.999 77.8597 245.148 78.4295 245.371 78.8755C245.594 79.3215 245.917 79.7179 246.314 80.0152C246.513 80.1639 246.711 80.3125 246.959 80.4116C247.207 80.5355 247.381 80.4612 247.604 80.3125C247.853 80.1639 248.051 79.9409 248.2 79.6931C248.274 79.594 248.349 79.4454 248.398 79.2967C248.398 79.3215 248.423 79.3463 248.423 79.3463C248.597 79.8666 248.175 80.3125 247.778 80.5851C247.183 80.9815 246.463 81.2045 245.743 81.2293C244.825 81.254 243.882 81.0558 243.014 80.8081C242.17 80.5603 241.426 80.1639 240.756 79.594C240.706 79.5445 240.632 79.6188 240.681 79.6683C240.83 79.8418 241.029 79.9904 241.202 80.1391C241.004 80.486 240.805 80.8328 240.483 81.0806C240.185 81.3284 239.838 81.5266 239.465 81.6752C239.267 81.7496 239.366 82.0469 239.565 82.0221C240.731 81.9725 241.748 82.7654 242.319 83.7317C242.964 84.797 243.088 85.9863 243.336 87.1756C243.361 87.2499 243.46 87.2499 243.46 87.1508C243.336 84.9705 242.319 82.3937 240.086 81.7743C240.656 81.4027 241.153 80.8576 241.302 80.2134C242.269 80.9319 243.56 81.4027 244.751 81.5761C243.659 83.3352 245.049 85.8129 247.183 85.7385C247.704 85.7138 248.175 85.5651 248.597 85.3173C248.324 85.912 248.374 86.7296 248.647 87.2747C249.019 88.0427 249.838 88.4392 250.681 88.4392C251.699 88.4392 252.642 87.8941 253.485 87.349C254.428 86.7544 255.322 86.0854 256.116 85.2926C256.066 85.2926 255.992 85.2182 255.967 85.2678ZM248.2 79.2719C248.15 79.3958 248.076 79.5197 248.001 79.6188C247.853 79.817 247.654 80.0152 247.431 80.1639C247.356 80.2134 247.257 80.2878 247.158 80.263C247.108 80.263 247.034 80.2134 246.984 80.1887C246.86 80.1391 246.761 80.0648 246.637 79.9904C246.413 79.8418 246.215 79.6683 246.041 79.4701C245.694 79.0985 245.446 78.6525 245.346 78.1322C245.247 77.6119 245.346 76.72 246.041 76.7447C246.066 76.7447 246.091 76.7447 246.116 76.72C246.761 77.2403 247.381 77.8101 247.853 78.4543C248.001 78.6525 248.126 78.8755 248.225 79.0985C248.25 79.148 248.225 79.2224 248.2 79.2719ZM248.299 81.477C248.92 81.7743 248.92 82.5424 248.696 83.1123C248.448 83.7317 248.026 84.252 247.629 84.7723C247.555 84.7475 247.48 84.7227 247.431 84.6979C247.307 84.6484 247.183 84.5988 247.083 84.5493C246.835 84.4502 246.612 84.3263 246.389 84.1776C246.19 84.029 245.991 83.8803 245.793 83.7069C245.619 83.5335 245.446 83.3352 245.272 83.1618H245.297C245.545 83.0132 245.719 82.7406 245.892 82.5176C246.091 82.2699 246.314 82.0469 246.562 81.8487C247.009 81.5018 247.679 81.1797 248.299 81.477Z" fill="#C4976E"/>
<path d="M252.642 85.1439C252.493 84.7227 252.146 84.4006 251.724 84.2519C251.277 84.1033 250.781 84.1776 250.359 84.3758C249.838 84.6236 249.441 85.0943 249.044 85.5155C249.019 85.5403 249.019 85.5651 249.019 85.5651C248.994 85.5651 248.994 85.5651 248.994 85.5899C249.019 85.8376 249.217 86.0606 249.366 86.2588C249.515 86.4818 249.714 86.7048 249.887 86.903C250.086 87.1012 250.284 87.2747 250.483 87.4481C250.582 87.5224 250.706 87.5967 250.83 87.6711C250.954 87.7454 251.079 87.8693 251.227 87.795C251.252 87.795 251.277 87.7702 251.302 87.7454C251.327 87.7454 251.327 87.7206 251.351 87.7206C251.575 87.5224 251.798 87.2994 251.997 87.0764C252.17 86.903 252.369 86.7048 252.518 86.4818C252.766 86.0854 252.816 85.5651 252.642 85.1439ZM252.369 86.1102C252.245 86.3579 252.071 86.5561 251.848 86.7544C251.6 86.9773 251.351 87.2003 251.128 87.4233C251.128 87.4233 251.128 87.4481 251.103 87.4481C251.079 87.4481 251.054 87.4233 251.029 87.4233C250.905 87.3738 250.806 87.2994 250.706 87.2251C250.483 87.0764 250.26 86.9278 250.061 86.7544C249.863 86.5809 249.689 86.4075 249.515 86.1845C249.441 86.0854 249.366 85.9863 249.292 85.8872C249.242 85.8129 249.193 85.7385 249.118 85.6642C249.143 85.6642 249.168 85.6642 249.193 85.6394C249.59 85.2182 250.012 84.7722 250.533 84.5493C251.029 84.3263 251.6 84.3263 252.021 84.6979C252.468 85.0448 252.592 85.6146 252.369 86.1102Z" fill="#C4976E"/>
<path d="M257.034 71.8639C256.959 71.6657 256.835 71.4922 256.686 71.3188C256.538 71.1454 256.389 70.9967 256.215 70.8728C255.868 70.6251 255.495 70.4269 255.074 70.3525C255.049 70.3525 255.049 70.3773 255.074 70.4021C255.471 70.526 255.843 70.6994 256.165 70.9719C256.314 71.0958 256.463 71.2445 256.587 71.4179C256.711 71.5914 256.811 71.7648 256.935 71.9382C256.984 71.9878 257.059 71.9134 257.034 71.8639Z" fill="#C4976E"/>
<path d="M257.406 71.1453C257.332 71.0462 257.257 70.9471 257.183 70.848C257.034 70.6745 256.835 70.5011 256.662 70.3524C256.289 70.0799 255.843 69.8074 255.396 69.733C255.322 69.733 255.322 69.8074 255.371 69.8321C255.57 69.9312 255.793 70.0056 255.992 70.1295C256.19 70.2533 256.389 70.3772 256.538 70.5259C256.711 70.6745 256.86 70.8232 256.984 70.9966C257.059 71.0957 257.108 71.1701 257.183 71.2692C257.232 71.3683 257.307 71.4921 257.406 71.5417C257.48 71.5665 257.555 71.5169 257.555 71.4426C257.53 71.3435 257.456 71.2196 257.406 71.1453Z" fill="#C4976E"/>
<path d="M260.21 78.1074C260.086 77.934 259.962 77.7854 259.838 77.6367C259.565 77.3394 259.267 77.0916 258.92 76.8686C258.895 76.8439 258.87 76.8934 258.895 76.8934C259.218 77.1412 259.491 77.4137 259.739 77.711C259.863 77.8597 259.962 78.0083 260.061 78.1818C260.161 78.3552 260.235 78.5286 260.359 78.6773C260.409 78.7269 260.458 78.6773 260.458 78.6278C260.434 78.4295 260.309 78.2561 260.21 78.1074Z" fill="#C4976E"/>
<path d="M259.838 78.8013C259.689 78.4792 259.466 78.2066 259.242 77.9589C259.019 77.7111 258.721 77.5129 258.424 77.389C258.374 77.3642 258.324 77.4386 258.399 77.4633C258.697 77.5872 258.945 77.8102 259.143 78.058C259.367 78.3057 259.515 78.6031 259.739 78.8508C259.764 78.9251 259.888 78.8756 259.838 78.8013Z" fill="#C4976E"/>
<path d="M242.319 61.0118C241.872 60.8631 241.376 60.8631 240.905 60.8879C240.408 60.9374 239.937 61.0613 239.49 61.2595C239.441 61.2843 239.465 61.3339 239.515 61.3339C239.962 61.1852 240.433 61.1109 240.905 61.0613C241.376 61.0366 241.823 61.0861 242.294 61.1357C242.344 61.1109 242.369 61.0366 242.319 61.0118Z" fill="#C4976E"/>
<path d="M241.996 60.5162C241.599 60.3675 241.153 60.3923 240.756 60.4914C240.706 60.4914 240.731 60.5657 240.756 60.5657C240.954 60.541 241.153 60.5162 241.376 60.541C241.575 60.5657 241.773 60.6153 241.972 60.6401C242.046 60.6401 242.071 60.541 241.996 60.5162Z" fill="#C4976E"/>
<path d="M241.5 52.241C240.557 52.018 239.54 52.1914 238.646 52.5631C238.572 52.5879 238.622 52.7117 238.696 52.687C239.614 52.3897 240.532 52.3401 241.475 52.3897C241.55 52.3897 241.575 52.2658 241.5 52.241Z" fill="#C4976E"/>
<path d="M240.681 51.572C240.607 51.572 240.532 51.5472 240.458 51.5472C240.383 51.5472 240.309 51.5472 240.235 51.5472C240.086 51.5472 239.937 51.5472 239.813 51.572C239.763 51.572 239.738 51.6216 239.738 51.6463C239.738 51.6959 239.788 51.7207 239.813 51.7207H240.235C240.309 51.7207 240.383 51.7207 240.433 51.7207C240.508 51.7207 240.582 51.6959 240.656 51.6959C240.756 51.6959 240.756 51.572 240.681 51.572Z" fill="#C4976E"/>
<path d="M255.595 54.8921C255.297 54.5947 254.875 54.4213 254.478 54.2974C254.081 54.1736 253.659 54.1488 253.262 54.1736C253.212 54.1736 253.237 54.2479 253.262 54.2479C253.684 54.2231 254.081 54.2974 254.478 54.4213C254.652 54.4709 254.825 54.57 254.999 54.6443C255.173 54.7434 255.346 54.8673 255.52 54.9912C255.595 55.0159 255.669 54.9416 255.595 54.8921Z" fill="#C4976E"/>
<path d="M254.552 53.8762C254.279 53.7276 253.982 53.6532 253.684 53.6037C253.386 53.5541 253.088 53.5541 252.791 53.5789C252.741 53.5789 252.741 53.6532 252.791 53.6532C253.088 53.6532 253.386 53.678 253.684 53.7523C253.957 53.8019 254.255 53.901 254.528 53.9753C254.602 54.0249 254.627 53.901 254.552 53.8762Z" fill="#C4976E"/>
<path d="M253.833 62.9196C253.758 62.7957 253.634 62.7214 253.51 62.6718C253.386 62.5975 253.262 62.5232 253.163 62.4489C252.915 62.325 252.667 62.2011 252.394 62.102C251.872 61.9038 251.302 61.7799 250.731 61.7303C250.657 61.7303 250.657 61.8295 250.706 61.8295C251.252 61.9038 251.798 62.0524 252.319 62.2754C252.567 62.3745 252.815 62.4984 253.039 62.6223C253.163 62.6966 253.287 62.771 253.386 62.8453C253.485 62.9196 253.585 62.9939 253.709 63.0435C253.833 63.0435 253.858 62.9692 253.833 62.9196Z" fill="#C4976E"/>
<path d="M253.56 62.2011C253.337 62.0525 253.113 61.9534 252.865 61.8542C252.617 61.7551 252.369 61.6808 252.121 61.6065C252.046 61.5817 251.997 61.6808 252.071 61.7056C252.319 61.7799 252.542 61.879 252.791 61.9781C253.014 62.0772 253.262 62.2011 253.485 62.3002C253.56 62.3498 253.634 62.2507 253.56 62.2011Z" fill="#C4976E"/>
<path opacity="0.4" d="M240.458 44.8576C241.053 45.4027 241.401 46.1707 241.649 46.914C242.195 48.5245 242.344 50.234 242.567 51.8941C242.939 54.5947 243.237 57.2705 243.56 59.9711C243.684 60.9374 243.832 61.9037 243.907 62.87C243.957 63.5142 243.981 64.1336 244.056 64.7777C244.13 65.4467 244.23 66.1652 244.502 66.7846C244.577 66.9581 244.651 67.1067 244.775 67.2554C244.651 65.8927 242.666 49.0448 242.294 46.8397C242.12 45.8486 241.252 45.0062 240.309 44.7337C240.358 44.7585 240.408 44.808 240.458 44.8576Z" fill="#C4976E"/>
<path opacity="0.4" d="M240.458 44.8576C241.053 45.4027 241.401 46.1707 241.649 46.914C242.195 48.5245 242.344 50.234 242.567 51.8941C242.939 54.5947 243.237 57.2705 243.56 59.9711C243.684 60.9374 243.832 61.9037 243.907 62.87C243.957 63.5142 243.981 64.1336 244.056 64.7777C244.13 65.4467 244.23 66.1652 244.502 66.7846C244.577 66.9581 244.651 67.1067 244.775 67.2554C244.651 65.8927 242.666 49.0448 242.294 46.8397C242.12 45.8486 241.252 45.0062 240.309 44.7337C240.358 44.7585 240.408 44.808 240.458 44.8576Z" fill="#C4976E"/>
<path d="M191.152 129.122C191.152 129.122 197.852 63.7618 195.271 59.9711C190.01 57.2457 188.075 52.3895 187.107 47.1865C186.139 41.9835 185.767 39.4811 187.777 37.9201C189.787 36.3592 196.016 34.5258 196.016 34.5258C196.016 34.5258 196.363 30.6855 196.735 28.6043C197.083 26.6221 198.844 26.3992 199.986 26.4983C202.492 26.6965 202.914 28.7281 202.914 28.7281C202.914 28.7281 203.609 25.6806 206.859 26.0275C210.11 26.3744 209.887 30.289 209.887 30.289C209.887 30.289 210.854 26.5478 214.279 27.415C217.703 28.2822 216.661 34.0798 216.661 34.0798C216.661 34.0798 218.001 32.2959 220.731 33.1879C225.172 34.6249 220.135 47.7316 218.994 50.6304C217.728 53.8018 214.899 58.5093 213.882 59.872C212.864 61.2347 211.822 70.7488 211.673 78.5285C211.524 86.3083 209.539 131.575 209.539 131.575C209.539 131.575 204.899 136.059 199.365 136.084C193.782 136.059 191.152 129.122 191.152 129.122Z" fill="#FFE68C"/>
<path d="M195.519 34.6497C195.495 34.6497 195.47 34.6745 195.445 34.6745C195.42 34.6745 195.395 34.6993 195.37 34.6993C195.37 34.6993 195.346 34.6993 195.346 34.724H195.321C195.296 34.724 195.271 34.724 195.246 34.724C195.246 34.724 195.222 34.724 195.222 34.7488C195.197 34.7488 195.197 34.7736 195.197 34.7984C195.197 34.8232 195.222 34.8232 195.222 34.8232C195.246 34.8232 195.246 34.8232 195.271 34.8232C195.296 34.8232 195.296 34.8232 195.296 34.7984L195.321 34.7736L195.346 34.7488L195.37 34.724C195.395 34.6993 195.42 34.6993 195.445 34.6745C195.47 34.6993 195.495 34.6745 195.519 34.6497Z" fill="#C4976E"/>
<path d="M221.376 40.1748C220.83 42.4047 220.085 44.585 218.77 46.5175C218.125 47.459 217.306 48.4996 216.289 49.0695C215.743 49.3916 214.974 49.565 214.378 49.2677C213.783 48.9704 213.534 48.3014 213.41 47.682C213.41 47.6572 213.41 47.6572 213.386 47.6325C213.485 47.5086 213.559 47.3847 213.659 47.236C213.783 47.8554 214.304 48.2519 214.825 48.5244C215.123 48.6731 215.445 48.8217 215.768 48.7969C216.14 48.7722 216.339 48.5244 216.537 48.2271C216.984 47.6077 217.381 46.8892 217.53 46.1211C217.604 45.7495 217.604 45.3778 217.43 45.0557C217.281 44.7336 216.984 44.5354 216.661 44.362C216.016 44.0399 215.247 43.9656 214.676 44.4363C214.899 43.5444 215.048 42.6524 215.222 41.7605C215.569 39.7784 216.066 37.821 216.463 35.8637C216.487 35.7646 216.289 35.715 216.264 35.8142C215.669 38.6882 215.172 41.6118 214.453 44.4611C214.155 45.6503 213.758 46.8148 212.914 47.7316C212.467 48.2271 211.897 48.6731 211.227 48.7722C210.532 48.896 209.887 48.574 209.415 48.1032C208.448 47.1369 208.348 45.7495 208.398 44.4115C208.621 43.1479 208.745 41.8348 208.869 40.5712C208.969 39.5554 209.093 38.5395 209.167 37.5237C209.192 37.0034 209.192 36.5079 209.192 35.9876C209.217 35.4425 209.291 34.9222 209.291 34.3771C209.291 34.3028 209.192 34.3028 209.167 34.3771C209.118 35.17 209.068 35.9628 208.969 36.7557C208.869 37.5237 208.82 38.2918 208.745 39.0598C208.596 40.6208 208.373 42.1569 208.199 43.7178C208.026 45.13 207.753 46.7653 206.611 47.7316C205.693 48.5492 204.304 48.5244 203.286 47.8554C202.145 47.0626 202.045 45.6751 202.145 44.3868C202.492 43.2718 202.641 42.0826 202.74 40.9181C202.864 39.1837 202.765 37.4494 202.79 35.715C202.79 34.7983 202.765 33.8816 202.79 32.9649C202.815 32.0977 202.864 31.2305 202.79 30.3634C202.79 30.289 202.641 30.289 202.641 30.3634C202.492 31.949 202.616 33.5843 202.542 35.17C202.467 36.7061 202.492 38.2422 202.443 39.7536C202.393 41.2402 202.318 42.7267 201.897 44.1638C201.549 45.353 200.706 47.5581 199.068 47.0378C198.844 46.7901 198.596 46.5423 198.348 46.2945C198.571 46.3689 198.82 46.4184 199.018 46.4432C199.44 46.4927 200.036 46.4927 200.383 46.2202C200.755 45.9477 200.854 45.3283 200.929 44.9071C201.053 44.362 201.103 43.7921 201.103 43.247C201.103 42.8258 201.028 42.3799 200.78 42.033C200.532 41.7109 200.135 41.5127 199.738 41.4136C198.993 41.2402 197.877 41.2154 197.405 41.9339C197.107 42.3799 197.083 43.0241 197.083 43.5691C197.083 44.139 197.132 44.7089 197.256 45.2787C197.182 45.2044 197.107 45.13 197.008 45.0557C196.909 44.9814 196.81 44.8823 196.71 44.808C196.735 44.7088 196.661 44.585 196.636 44.4611C196.586 44.3372 196.562 44.2133 196.537 44.0647C196.462 43.7921 196.413 43.4948 196.388 43.2223C196.363 42.925 196.363 42.6276 196.363 42.3303C196.363 42.2064 196.388 42.0578 196.388 41.9339C196.388 41.8596 196.413 41.7852 196.413 41.6861C196.586 41.5127 196.76 41.3145 196.909 41.1163C198.001 39.7288 198.72 37.7715 198.199 36.0371C198.199 36.0124 198.224 35.9876 198.224 35.9628C198.373 35.6407 198.373 35.2691 198.274 34.947C198.15 34.6249 197.951 34.3524 197.653 34.1789C197.182 33.9312 196.611 34.055 196.14 34.2037C194.874 34.6497 193.633 35.1947 192.393 35.7398C192.343 35.7398 192.318 35.7398 192.293 35.7894C192.269 35.7894 192.269 35.8142 192.244 35.8142C192.219 35.8389 192.219 35.8885 192.269 35.8885H192.293C192.715 36.6813 193.485 37.276 194.378 37.4742C195.395 37.6972 196.338 37.3007 197.232 36.83C197.529 36.6565 197.877 36.4831 198.1 36.2106C198.398 37.9201 197.629 39.6297 196.537 40.9676C196.065 41.5375 195.495 42.033 194.899 42.479C194.254 42.9497 193.559 43.247 192.839 43.5691C192.74 43.6187 192.79 43.7673 192.914 43.7426C193.311 43.693 193.733 43.5444 194.105 43.3709C195.47 43.9656 196.636 44.9071 197.703 45.9477C197.703 45.9477 197.703 45.9477 197.728 45.9477C198.249 46.468 198.745 47.013 199.241 47.5829C199.961 48.4005 200.606 49.2925 201.202 50.2092C201.475 50.6304 201.698 51.0764 201.946 51.5223C202.194 52.0179 202.393 52.5382 202.666 53.0089C202.715 53.108 202.864 53.0585 202.84 52.9594C202.616 51.9188 201.971 50.8782 201.4 49.9862C200.805 49.0695 200.16 48.2023 199.415 47.3847C199.39 47.3351 199.341 47.3104 199.316 47.2856C200.383 47.6325 201.301 46.5175 201.723 45.6256C201.797 45.4769 201.847 45.3283 201.897 45.2044C201.822 46.0715 201.996 46.9387 202.542 47.6077C203.261 48.4996 204.552 48.896 205.644 48.5987C206.909 48.2519 207.703 47.0874 208.051 45.8733C208.1 45.7247 208.125 45.6008 208.15 45.4521C208.125 46.3193 208.274 47.1617 208.77 47.8802C209.465 48.896 210.681 49.3916 211.822 48.896C212.368 48.6483 212.815 48.2766 213.162 47.8307C213.386 48.8465 214.08 49.8375 215.247 49.788C216.562 49.7384 217.629 48.5244 218.398 47.5829C220.085 45.4769 220.954 42.8259 221.326 40.1996C221.401 40.15 221.376 40.15 221.376 40.1748ZM214.626 44.7832C214.651 44.7832 214.651 44.7832 214.676 44.7584C215.247 44.139 216.264 44.362 216.835 44.8575C217.505 45.4274 217.182 46.3689 216.86 47.0378C216.686 47.4095 216.487 47.7563 216.239 48.1032C216.115 48.2519 216.016 48.4501 215.817 48.4996C215.619 48.5492 215.42 48.4996 215.247 48.4501C214.602 48.2519 213.932 47.8554 213.708 47.1617C213.907 46.8148 214.08 46.4432 214.229 46.0963C214.378 45.6503 214.527 45.2044 214.626 44.7832ZM197.38 36.5327C196.611 36.9539 195.718 37.3751 194.8 37.276C193.882 37.1769 193.038 36.6565 192.542 35.8637C193.41 35.5664 194.254 35.2939 195.097 34.9965C195.569 34.8231 196.065 34.6249 196.562 34.501C196.983 34.4019 197.554 34.3524 197.877 34.6992C198.1 34.947 198.224 35.2939 198.174 35.6159C198.15 36.0619 197.777 36.3345 197.38 36.5327ZM194.279 43.3462C194.626 43.1727 194.973 42.9993 195.271 42.8011C195.643 42.5533 196.016 42.256 196.338 41.9339C196.313 42.0826 196.289 42.2312 196.289 42.3551C196.264 42.6524 196.264 42.9745 196.289 43.2718C196.313 43.5691 196.363 43.8912 196.437 44.1885C196.462 44.3372 196.512 44.4859 196.562 44.6097C195.867 44.0647 195.122 43.5939 194.279 43.3462ZM197.604 45.5265C197.604 45.5017 197.604 45.5017 197.604 45.4769C197.405 44.5602 197.356 43.6435 197.504 42.7267C197.579 42.2808 197.777 41.9091 198.224 41.7357C198.571 41.6118 198.969 41.587 199.341 41.6118C199.713 41.6366 200.11 41.7109 200.433 41.9339C200.78 42.1817 200.929 42.5781 200.954 42.9745C201.003 43.4205 200.929 43.8665 200.879 44.2877C200.805 44.7584 200.706 45.2044 200.557 45.6504C200.457 45.9229 200.333 46.0963 200.036 46.1707C199.787 46.245 199.539 46.2698 199.291 46.245C199.018 46.245 198.77 46.2202 198.497 46.1459C198.373 46.1211 198.249 46.0715 198.125 46.022C197.976 45.8733 197.777 45.6999 197.604 45.5265Z" fill="#C4976E"/>
<path d="M206.884 43.8913C206.611 42.8755 205.792 42.0331 204.676 42.1074C204.155 42.157 203.658 42.4047 203.336 42.8012C202.964 43.2471 202.839 43.817 202.79 44.3868C202.765 44.7585 202.79 45.1053 202.815 45.477C202.839 45.7991 202.839 46.146 202.939 46.468C203.088 46.9883 203.658 47.2113 204.155 47.3104C204.403 47.3848 204.626 47.4591 204.874 47.4839C205.395 47.5582 206.065 47.583 206.462 47.1618C206.81 46.7901 206.909 46.2698 206.959 45.7991C207.008 45.1797 207.058 44.5107 206.884 43.8913ZM206.686 45.3531C206.636 45.7991 206.562 46.2698 206.363 46.6663C206.09 47.2113 205.495 47.2361 204.949 47.2113C204.527 47.1866 204.13 47.1122 203.733 46.9883C203.46 46.8645 203.236 46.691 203.162 46.3689C203.038 45.8734 203.063 45.2788 203.063 44.7833C203.063 44.2877 203.112 43.7427 203.336 43.2967C203.559 42.8755 203.956 42.5782 204.428 42.4543C205.445 42.1817 206.338 42.925 206.611 43.8665C206.735 44.3125 206.735 44.8576 206.686 45.3531Z" fill="#C4976E"/>
<path d="M213.113 44.9319C213.138 43.9409 212.691 43.0241 211.748 42.6277C210.904 42.2808 209.887 42.6029 209.366 43.3462C209.018 43.8665 208.969 44.5355 208.944 45.1301C208.919 45.7495 208.969 46.4433 209.167 47.0379V47.0627C209.167 47.0875 209.167 47.0875 209.192 47.1122C209.217 47.1618 209.242 47.1618 209.291 47.1618C209.713 47.4591 210.185 47.6573 210.681 47.7316C211.177 47.806 211.798 47.8307 212.244 47.583C212.666 47.36 212.84 46.8892 212.939 46.4433C213.063 45.9725 213.113 45.4522 213.113 44.9319ZM212.666 45.9973C212.592 46.3689 212.542 46.7654 212.294 47.0627C211.996 47.4591 211.326 47.4839 210.855 47.4591C210.309 47.4343 209.812 47.2857 209.341 47.0379C209.291 46.5176 209.192 46.0221 209.192 45.5018C209.192 45.0062 209.217 44.4859 209.366 44.0152C209.614 43.1976 210.408 42.6525 211.276 42.7764C212.195 42.925 212.79 43.7427 212.84 44.6346C212.865 45.0806 212.79 45.5265 212.666 45.9973Z" fill="#C4976E"/>
<path d="M201.202 28.2574C200.705 27.9601 200.085 27.8114 199.514 27.7867C198.919 27.7619 198.348 27.861 197.802 28.1087C197.777 28.1335 197.777 28.1831 197.827 28.1831C198.373 28.0096 198.944 27.9353 199.49 27.9601C200.06 27.9849 200.581 28.1831 201.102 28.4061C201.202 28.4308 201.276 28.307 201.202 28.2574Z" fill="#C4976E"/>
<path d="M200.606 28.6291C200.433 28.53 200.209 28.5052 200.011 28.4804C199.812 28.4804 199.589 28.5052 199.39 28.5547C199.316 28.5795 199.341 28.6538 199.415 28.6538C199.614 28.6291 199.812 28.6291 199.986 28.6291C200.184 28.6538 200.358 28.7034 200.557 28.7282C200.631 28.7529 200.656 28.6786 200.606 28.6291Z" fill="#C4976E"/>
<path d="M189.192 41.2154C188.472 40.7447 187.653 40.2987 187.38 39.4315C187.355 39.382 187.281 39.382 187.281 39.4563C187.48 40.373 188.348 40.9181 189.142 41.2897C189.217 41.3145 189.241 41.2402 189.192 41.2154Z" fill="#C4976E"/>
<path d="M187.504 40.9181C187.405 40.8438 187.306 40.7694 187.231 40.6951C187.132 40.6208 187.058 40.5217 186.983 40.4226C186.958 40.3978 186.934 40.4226 186.934 40.4473C187.082 40.6455 187.256 40.819 187.455 40.9676C187.504 41.0172 187.529 40.9429 187.504 40.9181Z" fill="#C4976E"/>
<path d="M207.381 27.6132C206.686 27.3655 205.892 27.3655 205.172 27.4646C205.147 27.4646 205.147 27.5141 205.172 27.5141C205.544 27.4893 205.917 27.4893 206.289 27.5141C206.636 27.5389 207.008 27.6132 207.356 27.6628C207.405 27.6876 207.405 27.638 207.381 27.6132Z" fill="#C4976E"/>
<path d="M206.934 26.9442C206.859 26.9194 206.785 26.8947 206.71 26.8699C206.636 26.8451 206.562 26.8451 206.487 26.8451C206.338 26.8203 206.189 26.8203 206.04 26.8451C205.966 26.8451 205.966 26.9442 206.04 26.9442C206.189 26.9442 206.338 26.969 206.487 26.969C206.562 26.969 206.636 26.9938 206.71 26.9938C206.785 26.9938 206.859 27.0186 206.934 27.0186C206.983 27.0433 207.008 26.969 206.934 26.9442Z" fill="#C4976E"/>
<path d="M214.453 28.9759C213.311 28.5547 212.17 28.7529 212.393 28.7281C212.343 28.7281 212.343 28.8025 212.393 28.8025C213.088 28.7777 213.758 28.9016 214.403 29.0502C214.477 29.0998 214.502 29.0007 214.453 28.9759Z" fill="#C4976E"/>
<path d="M213.733 28.3565C213.386 28.2326 212.989 28.2326 212.641 28.3317C212.592 28.3565 212.592 28.4308 212.666 28.4308C213.013 28.3813 213.361 28.4061 213.708 28.4804C213.758 28.4804 213.808 28.3813 213.733 28.3565Z" fill="#C4976E"/>
<path d="M220.408 34.3276C219.862 34.0303 219.217 33.9807 218.621 34.0798C218.547 34.1046 218.572 34.2037 218.646 34.2037C219.242 34.1294 219.812 34.2533 220.383 34.4267C220.433 34.4515 220.482 34.3524 220.408 34.3276Z" fill="#C4976E"/>
<path d="M220.334 33.7082C219.961 33.5596 219.564 33.4852 219.167 33.4357C219.093 33.4357 219.093 33.5348 219.142 33.5348C219.54 33.6091 219.912 33.7082 220.309 33.8073C220.358 33.8321 220.383 33.733 220.334 33.7082Z" fill="#C4976E"/>
<path opacity="0.4" d="M194.279 43.3462C194.303 43.3462 195.47 43.6435 196.537 44.6098C196.189 43.4205 196.239 42.8507 196.313 41.9092C196.338 41.8844 195.693 42.6524 194.279 43.3462Z" fill="#C4976E"/>
<path d="M155.692 84.9456C155.692 84.9456 153.558 84.6978 151.623 82.6414C149.687 80.5602 149.464 77.9835 147.776 76.9181C146.089 75.8527 142.491 73.5237 140.928 72.0619C140.134 71.3186 138.471 70.2532 139.166 68.9401C139.811 67.7261 141.474 67.8252 142.714 68.4446C145.196 69.6834 149.489 72.8052 149.96 72.7309C150.432 72.6565 150.109 68.0234 149.365 65.9917C148.273 63.0186 142.144 53.8761 140.828 51.5223C139.513 49.1686 142.441 46.022 144.724 49.0199C147.007 51.9931 153.409 61.9284 153.806 62.6469C154.203 63.3407 155.94 63.2168 155.692 61.7302C155.469 60.2436 153.657 47.1617 153.434 44.5107C153.236 41.8348 157.256 40.819 158.099 44.3124C158.943 47.8059 160.581 60.1941 160.829 61.7797C161.077 63.3654 162.864 63.0929 163.112 61.6311C163.36 60.1693 165.196 47.7811 165.643 45.7247C166.089 43.6683 169.166 43.8417 169.117 46.6166C169.067 49.3916 168.025 62.6717 167.876 63.6627C167.752 64.629 169.415 66.2643 170.109 64.629C170.804 62.9938 173.41 55.8334 174.278 54.0991C175.147 52.34 177.33 52.8603 177.157 54.8919C177.008 56.9236 174.501 65.8678 173.534 68.2216C172.566 70.5506 171.97 72.8548 171.995 75.5058C172.02 78.1569 171.549 81.7495 170.084 83.3351C168.62 84.896 168.075 85.7384 168 87.002C167.901 88.2409 181.673 155.93 181.673 155.93C181.673 155.93 177.603 160.117 172.417 160.538C167.231 160.959 160.754 158.531 160.754 158.531L155.692 84.9456Z" fill="#FFE68C"/>
<path opacity="0.4" d="M143.409 48.3014C144.005 48.8713 144.551 49.5155 145.022 50.1844C145.841 51.2994 146.561 52.5134 147.33 53.6531C148.496 55.3875 149.588 57.1713 150.779 58.9057C151.374 59.7729 151.995 60.64 152.64 61.4576C152.938 61.8293 153.236 62.2257 153.558 62.5726C153.757 62.7956 153.93 62.8203 153.806 62.5974C153.409 61.9036 146.982 51.9683 144.724 48.9704C144.079 48.128 143.384 47.7811 142.764 47.7563C142.987 47.9298 143.186 48.1032 143.409 48.3014Z" fill="#C4976E"/>
<path opacity="0.4" d="M157.777 45.2044C158.124 46.4928 158.323 47.8307 158.571 49.1439C158.943 51.1755 159.241 53.2072 159.489 55.2388C159.613 56.3042 159.712 57.3944 159.811 58.4845C159.861 59.1039 159.861 59.6986 159.911 60.318C159.936 60.8383 160.01 61.4329 160.283 61.9037C160.457 62.2257 160.73 62.3992 161.027 62.4487C160.953 62.2753 160.903 62.0771 160.854 61.8046C160.605 60.2189 158.943 47.8307 158.124 44.3372C157.851 43.1728 157.206 42.5038 156.486 42.2313C157.131 43.0489 157.504 44.1886 157.777 45.2044Z" fill="#C4976E"/>
<path opacity="0.4" d="M168.496 44.808C168.844 45.9725 168.869 47.2361 168.794 48.4502C168.695 50.0606 168.447 51.6463 168.323 53.232C168.149 55.0902 168.05 56.9484 167.926 58.8067C167.876 59.6738 167.851 60.541 167.777 61.4082C167.727 61.8541 167.677 62.3001 167.653 62.7461C167.628 63.2912 167.876 63.9601 167.901 63.6133C168.025 62.647 169.092 49.3421 169.141 46.5672C169.141 45.7743 168.869 45.1797 168.496 44.808Z" fill="#C4976E"/>
<path opacity="0.4" d="M142.714 68.4198C142.342 68.2463 142.019 68.172 141.722 68.1968C142.888 68.5932 143.93 69.386 144.898 70.1541C146.015 71.0461 147.082 72.0123 148.446 72.5326C149.836 73.0529 151.3 73.1025 152.764 73.2264C154.278 73.3503 155.791 73.5732 157.181 74.2174C158.298 74.7625 159.29 75.5058 160.233 76.2986C159.911 75.8527 159.489 75.4315 159.067 75.0846C157.702 73.9697 156.015 73.2512 154.303 72.83C153.533 72.6565 152.739 72.5326 151.945 72.5079C151.449 72.5079 150.953 72.5822 150.481 72.607C150.357 72.607 150.233 72.607 150.109 72.607C150.084 72.6565 150.034 72.7061 149.985 72.7061C149.91 72.7061 149.786 72.6565 149.588 72.5574C149.34 72.5326 144.526 69.3117 142.714 68.4198Z" fill="#C4976E"/>
<path d="M146.114 73.4496C145.915 73.623 145.791 73.8708 145.692 74.0938C145.593 74.3415 145.518 74.5893 145.518 74.837C145.518 74.8866 145.568 74.8866 145.568 74.837C145.617 74.5893 145.692 74.3663 145.791 74.1433C145.89 73.9203 146.039 73.7221 146.188 73.5239C146.238 73.4743 146.163 73.4 146.114 73.4496Z" fill="#C4976E"/>
<path d="M146.213 73.945C146.064 74.2919 145.915 74.614 145.766 74.9609C145.741 75.0104 145.816 75.0352 145.841 74.9856C146.014 74.6635 146.163 74.3167 146.312 73.9698C146.362 73.8955 146.263 73.8707 146.213 73.945Z" fill="#C4976E"/>
<path d="M143.781 71.2445C143.533 71.6409 143.31 72.0621 143.136 72.5081C143.111 72.5576 143.211 72.6072 143.211 72.5328C143.384 72.1116 143.608 71.6904 143.856 71.294C143.93 71.2445 143.831 71.1701 143.781 71.2445Z" fill="#C4976E"/>
<path d="M161.896 77.9589C161.474 77.0174 160.705 76.2245 159.96 75.5308C159.191 74.8123 158.323 74.2424 157.38 73.7717C155.345 72.7806 152.963 72.409 150.729 72.8302C150.68 72.8302 150.705 72.9045 150.729 72.9045C152.963 72.7063 155.171 73.0531 157.181 74.069C158.074 74.5149 158.893 75.1096 159.638 75.7785C160.407 76.4971 161.002 77.3147 161.648 78.1323C161.772 78.2314 161.97 78.1075 161.896 77.9589Z" fill="#C4976E"/>
<path d="M149.786 59.1289C148.967 59.3023 148.198 59.773 147.553 60.3181C147.503 60.3677 147.578 60.4668 147.627 60.4172C147.95 60.1695 148.322 59.9465 148.694 59.7483C149.067 59.5748 149.439 59.4262 149.836 59.2775C149.91 59.228 149.861 59.1041 149.786 59.1289Z" fill="#C4976E"/>
<path d="M146.163 52.2658C145.245 52.464 144.402 52.9596 143.732 53.6533C143.682 53.7029 143.757 53.8267 143.806 53.7524C144.451 53.1082 145.27 52.6623 146.163 52.4145C146.288 52.3897 146.263 52.2411 146.163 52.2658Z" fill="#C4976E"/>
<path d="M157.305 48.4254C156.66 48.4254 155.99 48.5989 155.394 48.8466C155.345 48.8714 155.369 48.9457 155.419 48.9209C155.717 48.8218 156.039 48.7475 156.362 48.6732C156.685 48.6236 156.982 48.5988 157.305 48.5741C157.379 48.5741 157.379 48.4254 157.305 48.4254Z" fill="#C4976E"/>
<path d="M157.057 49.0201C156.66 49.0697 156.263 49.1688 155.891 49.2431C155.816 49.2679 155.841 49.367 155.915 49.367C156.312 49.3175 156.71 49.2431 157.107 49.1936C157.181 49.1688 157.181 49.0201 157.057 49.0201Z" fill="#C4976E"/>
<path d="M158.397 55.9078C157.627 55.9326 156.833 56.106 156.139 56.3786C156.089 56.4034 156.114 56.4529 156.163 56.4529C156.908 56.2795 157.677 56.1556 158.422 56.0565C158.521 56.0317 158.496 55.9078 158.397 55.9078Z" fill="#C4976E"/>
<path d="M166.511 59.773C165.791 59.5253 165.022 59.4757 164.278 59.4757C164.228 59.4757 164.228 59.55 164.278 59.55C165.022 59.5748 165.742 59.7235 166.486 59.8721C166.561 59.8969 166.585 59.7978 166.511 59.773Z" fill="#C4976E"/>
<path d="M165.915 58.9554C165.32 58.9059 164.7 58.9059 164.079 58.9059C164.03 58.9059 164.03 58.9802 164.079 58.9802C164.675 59.005 165.295 59.0545 165.891 59.0793C165.965 59.0793 165.965 58.9802 165.915 58.9554Z" fill="#C4976E"/>
<path d="M167.404 51.5472C166.983 51.349 166.511 51.2995 166.04 51.3242C165.965 51.3242 165.99 51.4234 166.064 51.4234C166.511 51.3986 166.958 51.4977 167.355 51.6463C167.429 51.6959 167.479 51.5968 167.404 51.5472Z" fill="#C4976E"/>
<path d="M175.494 58.7819C174.923 58.4598 174.253 58.2368 173.608 58.0634C173.558 58.0386 173.509 58.1377 173.583 58.1625C173.906 58.2616 174.228 58.3607 174.526 58.4846C174.849 58.6085 175.146 58.7324 175.469 58.8562C175.494 58.881 175.543 58.8067 175.494 58.7819Z" fill="#C4976E"/>
<path d="M175.419 59.7482C174.973 59.1288 174.253 58.7324 173.509 58.6333C173.459 58.6333 173.459 58.7076 173.509 58.7076C174.228 58.8811 174.849 59.3023 175.345 59.8226C175.37 59.8473 175.444 59.7978 175.419 59.7482Z" fill="#C4976E"/>
<path d="M172.764 65.4715C172.094 65.0999 171.375 64.7778 170.655 64.4309C170.605 64.4062 170.556 64.5053 170.63 64.5301C171.325 64.9017 171.995 65.2733 172.69 65.5954C172.764 65.645 172.839 65.5211 172.764 65.4715Z" fill="#C4976E"/>
</svg>
