<svg width="155" height="155" viewBox="0 0 155 155" fill="none" xmlns="http://www.w3.org/2000/svg">
<g clip-path="url(#clip0_148_904)">
<path d="M13.4888 84.5518C16.2889 114.739 40.3295 138.745 70.4826 141.546V128.569C64.5066 127.852 58.838 126.11 53.6815 123.481L67.5117 119.793L73.4194 97.7672L57.2671 81.615L35.2414 87.5227L31.5533 101.353C28.9239 96.1964 27.1823 90.5277 26.4652 84.5518H13.4888Z" fill="#FFE68C"/>
<path d="M29.4702 125.564C22.7429 118.837 11.8154 118.837 5.05399 125.564C-1.67327 132.291 -1.67327 143.219 5.05399 149.98C11.7812 156.707 22.7088 156.707 29.4702 149.98C36.1974 143.219 36.1974 132.291 29.4702 125.564Z" fill="#FFE68C"/>
<path d="M125.564 149.946C132.291 156.673 143.219 156.673 149.98 149.946C156.707 143.219 156.707 132.291 149.98 125.53C143.253 118.803 132.325 118.803 125.564 125.53C118.837 132.291 118.837 143.219 125.564 149.946Z" fill="#FFE68C"/>
<path d="M87.5227 119.793L99.8844 123.105C94.5231 125.94 88.6154 127.818 82.3321 128.569V141.546C112.519 138.745 136.526 114.705 139.326 84.5518H126.35C125.769 89.4008 124.506 94.045 122.661 98.3819L119.759 87.5568L97.7672 81.615L81.615 97.7672L87.5227 119.793Z" fill="#FFE68C"/>
<path d="M82.3663 15.6741V28.6505C87.5227 29.2652 92.4401 30.6653 97.016 32.68L87.5568 35.207L81.615 57.2669L97.7331 73.385L119.759 67.4773L122.286 58.0182C124.335 62.5941 125.735 67.5115 126.315 72.6679H139.292C136.526 42.4806 112.519 18.4742 82.3663 15.6741Z" fill="#FFE68C"/>
<path d="M125.564 29.4702C132.291 36.1974 143.219 36.1974 149.98 29.4702C156.707 22.7429 156.707 11.8154 149.98 5.05399C143.253 -1.67327 132.325 -1.67327 125.564 5.05399C118.837 11.7812 118.837 22.7088 125.564 29.4702Z" fill="#FFE68C"/>
<path d="M26.431 72.6679C27.1823 66.3846 29.0605 60.4769 31.8948 55.1156L35.2072 67.4773L57.233 73.385L73.3511 57.2669L67.4434 35.2412L56.6183 32.3385C60.9552 30.4945 65.5652 29.231 70.4143 28.6505V15.6741C40.2953 18.4742 16.2889 42.4806 13.4888 72.6679H26.431Z" fill="#FFE68C"/>
<path d="M5.05399 29.4702C11.7812 36.1974 22.7088 36.1974 29.4702 29.4702C36.1974 22.7429 36.1974 11.8154 29.4702 5.05399C22.7429 -1.67327 11.8154 -1.67327 5.05399 5.05399C-1.67327 11.7812 -1.67327 22.7088 5.05399 29.4702Z" fill="#FFE68C"/>
</g>
<defs>
<clipPath id="clip0_148_904">
<rect width="155" height="155" fill="white"/>
</clipPath>
</defs>
</svg>
