<svg width="400" height="186" viewBox="0 0 400 186" fill="none" xmlns="http://www.w3.org/2000/svg">
<rect width="400" height="186" fill="#C4976E"/>
<path d="M200.2 44.1057C204.653 44.1057 209.346 45.5498 211.753 46.3922L219.334 27.9798C219.334 27.9798 217.289 28.7019 215.965 30.146C214.641 31.5901 215.002 32.9139 215.002 32.9139C215.002 32.9139 211.031 31.7104 210.188 33.9969C209.346 36.2834 212.355 37.3665 212.355 37.3665C212.355 37.3665 210.67 39.8937 206.699 38.8106C202.848 37.8479 202.848 34.2376 202.848 34.2376C202.848 34.2376 207.18 33.8766 207.3 31.2291C207.421 28.5815 201.765 28.3409 201.765 28.3409C201.765 28.3409 203.088 26.8968 202.727 24.6103C202.487 23.0458 200.08 21 200.08 21C200.08 21 197.673 22.9255 197.432 24.6103C197.192 27.0171 198.395 28.4612 198.395 28.4612C198.395 28.4612 192.98 28.5815 193.1 31.2291C193.22 33.8766 197.553 34.2376 197.553 34.2376C197.553 34.2376 197.553 37.8479 193.702 38.8106C189.851 39.7734 188.046 37.3665 188.046 37.3665C188.046 37.3665 190.934 36.2834 190.212 33.9969C189.369 31.7104 185.398 32.9139 185.398 32.9139C185.398 32.9139 185.759 31.4698 184.435 30.146C182.991 28.5815 181.066 27.9798 181.066 27.9798L188.647 46.2718C191.054 45.4294 195.868 44.1057 200.2 44.1057Z" fill="#FFE68C"/>
<path d="M200.2 45.309C196.108 45.309 191.535 46.6328 189.128 47.3548L190.332 50.1227C190.332 50.1227 194.784 48.3176 200.2 48.3176C205.615 48.3176 210.068 50.1227 210.068 50.1227L211.151 47.3548C208.985 46.6328 204.412 45.309 200.2 45.309Z" fill="#FFE68C"/>
<path d="M226.555 97.4172L228.24 90.9187L230.045 97.4172L236.664 97.0561L231.128 100.666L233.535 106.924L228.24 102.712L223.065 107.045L225.472 100.787L219.816 97.0561L226.555 97.4172Z" fill="#FFE68C"/>
<path d="M166.384 97.4172L168.069 90.9187L169.874 97.4172L176.493 97.0561L170.957 100.666L173.364 106.924L168.069 102.712L162.894 107.045L165.301 100.787L159.645 97.0561L166.384 97.4172Z" fill="#FFE68C"/>
<path d="M161.33 50.1228C161.33 50.1228 161.931 46.2719 166.384 45.5498C170.837 44.8278 174.567 46.8736 174.567 46.8736C174.567 46.8736 172.401 51.0856 167.467 51.4466C162.533 51.8076 161.33 50.1228 161.33 50.1228Z" fill="#FFE68C"/>
<path d="M155.192 55.4178C155.192 55.4178 158.802 53.011 159.043 48.9193C159.284 44.8277 157.118 43.0226 157.118 43.0226C157.118 43.0226 153.868 45.3091 153.868 49.16C153.868 53.011 155.192 55.4178 155.192 55.4178Z" fill="#FFE68C"/>
<path d="M169.513 56.1399C169.513 56.1399 166.986 53.6127 163.014 53.372C159.043 53.1313 155.192 55.5382 155.192 55.5382C155.192 55.5382 156.877 57.8247 160.126 58.4264C166.023 59.3891 169.513 56.1399 169.513 56.1399Z" fill="#FFE68C"/>
<path d="M147.37 64.3231C147.37 64.3231 150.138 59.9908 149.536 55.2975C148.935 50.6041 147.49 49.0397 147.49 49.0397C147.49 49.0397 144 52.6499 144.482 57.2229C144.963 61.7959 147.37 64.3231 147.37 64.3231Z" fill="#FFE68C"/>
<path d="M147.972 64.5639C147.972 64.5639 149.175 61.5553 154.109 60.8333C158.441 60.2316 161.931 62.157 161.931 62.157C161.931 62.157 158.562 66.1283 153.748 66.73C149.536 67.2114 147.972 64.5639 147.972 64.5639Z" fill="#FFE68C"/>
<path d="M141.594 76.598C141.594 76.598 144.121 72.6268 142.677 67.6927C141.233 62.7587 137.141 59.9908 137.141 59.9908C137.141 59.9908 134.132 66.1283 136.058 70.8216C137.983 75.515 141.594 76.598 141.594 76.598Z" fill="#FFE68C"/>
<path d="M142.797 76.237C142.797 76.237 143.278 72.5064 147.731 70.4606C152.184 68.4148 157.84 70.3402 157.84 70.3402C157.84 70.3402 155.313 74.9132 149.777 76.1167C144.241 77.3201 142.797 76.237 142.797 76.237Z" fill="#FFE68C"/>
<path d="M136.9 89.4747C136.9 89.4747 138.104 83.5779 135.336 79.366C132.568 75.154 127.634 74.793 127.634 74.793C127.634 74.793 126.551 80.9304 129.439 84.661C132.327 88.3916 136.9 89.4747 136.9 89.4747Z" fill="#FFE68C"/>
<path d="M137.863 89.5949C137.863 89.5949 138.705 83.5778 143.639 80.9303C148.573 78.2828 154.109 79.2455 154.109 79.2455C154.109 79.2455 152.906 86.2253 146.648 88.7525C141.353 90.7983 137.863 89.5949 137.863 89.5949Z" fill="#FFE68C"/>
<path d="M136.178 105.239C136.178 105.239 137.983 100.426 135.215 95.8528C132.448 91.2798 127.273 90.317 127.273 90.317C127.273 90.317 126.069 95.9731 128.717 99.9444C132.207 105.119 136.178 105.239 136.178 105.239Z" fill="#FFE68C"/>
<path d="M136.66 105.239C136.66 105.239 136.419 99.7036 141.714 95.3713C146.167 91.6407 150.86 91.7611 150.86 91.7611C150.86 91.7611 151.582 97.2968 147.009 101.509C142.316 105.721 136.66 105.239 136.66 105.239Z" fill="#FFE68C"/>
<path d="M141.834 120.162C141.834 120.162 141.473 114.385 136.9 110.775C132.327 107.165 127.393 107.646 127.393 107.646C127.393 107.646 127.995 113.302 132.929 117.514C137.863 121.726 141.834 120.162 141.834 120.162Z" fill="#FFE68C"/>
<path d="M142.436 119.921C142.436 119.921 140.872 114.626 143.399 110.414C145.926 106.202 149.055 104.517 149.055 104.517C149.055 104.517 150.98 109.812 149.175 114.024C147.009 118.718 142.436 119.921 142.436 119.921Z" fill="#FFE68C"/>
<path d="M147.611 132.918C147.611 132.918 145.926 127.142 140.872 125.216C135.817 123.291 131.365 124.254 131.365 124.254C131.365 124.254 134.373 129.549 138.344 131.594C142.436 133.761 147.611 132.918 147.611 132.918Z" fill="#FFE68C"/>
<path d="M148.694 132.918C148.694 132.918 145.565 128.826 146.407 124.253C147.25 119.681 150.619 115.589 150.619 115.589C150.619 115.589 154.229 121.125 153.748 126.299C153.267 131.474 148.694 132.918 148.694 132.918Z" fill="#FFE68C"/>
<path d="M157.479 144.351C157.479 144.351 153.507 139.176 147.25 139.296C140.992 139.417 137.261 142.425 137.261 142.425C137.261 142.425 141.955 146.757 148.212 146.878C154.47 146.998 157.479 144.351 157.479 144.351Z" fill="#FFE68C"/>
<path d="M158.201 144.23C158.201 144.23 161.57 141.703 161.45 135.806C161.33 129.91 157.96 125.938 157.96 125.938C157.96 125.938 153.507 131.715 153.989 136.528C154.59 141.462 158.201 144.23 158.201 144.23Z" fill="#FFE68C"/>
<path d="M170.837 153.737C170.837 153.737 164.338 148.322 158.08 149.646C151.823 150.969 149.656 154.82 149.656 154.82C149.656 154.82 154.591 159.032 160.487 158.671C167.347 158.31 170.837 153.737 170.837 153.737Z" fill="#FFE68C"/>
<path d="M171.318 153.256C171.318 153.256 165.542 149.886 165.542 143.268C165.542 136.649 169.031 132.918 169.031 132.918C169.031 132.918 173.484 136.769 173.725 143.869C173.965 150.969 171.318 153.256 171.318 153.256Z" fill="#FFE68C"/>
<path d="M185.519 161.439C185.519 161.439 180.584 157.107 175.41 158.07C170.355 159.032 166.986 163.485 166.986 163.485C166.986 163.485 170.716 166.614 176.613 165.892C182.51 165.17 185.519 161.439 185.519 161.439Z" fill="#FFE68C"/>
<path d="M186.481 160.958C186.481 160.958 181.066 158.671 178.659 153.497C176.252 148.322 177.455 143.027 177.455 143.027C177.455 143.027 184.435 145.434 186.962 150.729C189.49 156.024 186.481 160.958 186.481 160.958Z" fill="#FFE68C"/>
<path d="M239.071 50.1228C239.071 50.1228 238.469 46.2718 234.016 45.5498C229.564 44.8277 225.833 46.8735 225.833 46.8735C225.833 46.8735 227.999 51.0855 232.933 51.4465C237.867 51.8076 239.071 50.1228 239.071 50.1228Z" fill="#FFE68C"/>
<path d="M245.208 55.4178C245.208 55.4178 241.598 53.0109 241.357 48.9193C241.117 44.8277 243.283 43.0225 243.283 43.0225C243.283 43.0225 246.532 45.309 246.532 49.16C246.532 53.0109 245.208 55.4178 245.208 55.4178Z" fill="#FFE68C"/>
<path d="M230.887 56.1398C230.887 56.1398 233.415 53.6126 237.386 53.3719C241.357 53.1312 245.208 55.5381 245.208 55.5381C245.208 55.5381 243.523 57.8246 240.274 58.4263C234.257 59.389 230.887 56.1398 230.887 56.1398Z" fill="#FFE68C"/>
<path d="M252.91 64.3231C252.91 64.3231 250.142 59.9908 250.744 55.2975C251.346 50.6041 252.79 49.0397 252.79 49.0397C252.79 49.0397 256.28 52.6499 255.798 57.2229C255.317 61.7959 252.91 64.3231 252.91 64.3231Z" fill="#FFE68C"/>
<path d="M252.429 64.5638C252.429 64.5638 251.225 61.5552 246.291 60.8331C241.959 60.2314 238.469 62.1569 238.469 62.1569C238.469 62.1569 241.839 66.1282 246.652 66.7299C250.864 67.2113 252.429 64.5638 252.429 64.5638Z" fill="#FFE68C"/>
<path d="M258.687 76.5979C258.687 76.5979 256.159 72.6266 257.603 67.6926C259.048 62.7586 263.139 59.9907 263.139 59.9907C263.139 59.9907 266.148 66.1282 264.222 70.8215C262.297 75.5148 258.687 76.5979 258.687 76.5979Z" fill="#FFE68C"/>
<path d="M257.483 76.2369C257.483 76.2369 257.002 72.5063 252.549 70.4605C248.097 68.4147 242.44 70.4605 242.44 70.4605C242.44 70.4605 244.968 75.0335 250.503 76.2369C256.039 77.4404 257.483 76.2369 257.483 76.2369Z" fill="#FFE68C"/>
<path d="M263.38 89.4746C263.38 89.4746 262.177 83.5778 264.944 79.3658C267.712 75.1539 272.646 74.7928 272.646 74.7928C272.646 74.7928 273.729 80.9303 270.841 84.6609C267.953 88.3915 263.38 89.4746 263.38 89.4746Z" fill="#FFE68C"/>
<path d="M262.537 89.5948C262.537 89.5948 261.695 83.5777 256.761 80.9302C251.827 78.2826 246.291 79.2454 246.291 79.2454C246.291 79.2454 247.495 86.2252 253.752 88.7524C258.927 90.7982 262.537 89.5948 262.537 89.5948Z" fill="#FFE68C"/>
<path d="M264.222 105.239C264.222 105.239 262.417 100.426 265.185 95.8528C267.953 91.2798 273.127 90.317 273.127 90.317C273.127 90.317 274.331 95.9731 271.683 99.9444C268.193 105.119 264.222 105.239 264.222 105.239Z" fill="#FFE68C"/>
<path d="M263.741 105.239C263.741 105.239 263.982 99.7036 258.687 95.3713C254.234 91.6407 249.541 91.7611 249.541 91.7611C249.541 91.7611 248.819 97.2968 253.392 101.509C258.085 105.721 263.741 105.239 263.741 105.239Z" fill="#FFE68C"/>
<path d="M258.566 120.162C258.566 120.162 258.927 114.385 263.5 110.775C268.073 107.165 273.007 107.646 273.007 107.646C273.007 107.646 272.405 113.302 267.471 117.514C262.537 121.726 258.566 120.162 258.566 120.162Z" fill="#FFE68C"/>
<path d="M257.965 119.921C257.965 119.921 259.529 114.626 257.002 110.414C254.475 106.202 251.346 104.517 251.346 104.517C251.346 104.517 249.42 109.812 251.225 114.024C253.271 118.718 257.965 119.921 257.965 119.921Z" fill="#FFE68C"/>
<path d="M252.669 132.918C252.669 132.918 254.354 127.142 259.409 125.216C264.343 123.291 268.916 124.254 268.916 124.254C268.916 124.254 265.907 129.549 261.936 131.594C257.964 133.761 252.669 132.918 252.669 132.918Z" fill="#FFE68C"/>
<path d="M251.707 132.918C251.707 132.918 254.836 128.826 253.993 124.253C253.151 119.681 249.781 115.589 249.781 115.589C249.781 115.589 246.171 121.125 246.652 126.299C247.134 131.474 251.707 132.918 251.707 132.918Z" fill="#FFE68C"/>
<path d="M242.922 144.35C242.922 144.35 246.893 139.176 253.151 139.296C259.408 139.416 263.139 142.425 263.139 142.425C263.139 142.425 258.446 146.757 252.188 146.878C245.93 146.998 242.922 144.35 242.922 144.35Z" fill="#FFE68C"/>
<path d="M242.079 144.23C242.079 144.23 238.71 141.703 238.83 135.806C238.95 129.91 242.32 125.938 242.32 125.938C242.32 125.938 246.893 131.715 246.291 136.649C245.81 141.462 242.079 144.23 242.079 144.23Z" fill="#FFE68C"/>
<path d="M229.443 153.737C229.443 153.737 235.942 148.322 242.2 149.646C248.457 150.969 250.624 154.82 250.624 154.82C250.624 154.82 245.69 159.032 239.793 158.671C232.933 158.31 229.443 153.737 229.443 153.737Z" fill="#FFE68C"/>
<path d="M229.083 153.256C229.083 153.256 234.859 149.886 234.859 143.267C234.859 136.649 231.249 132.918 231.249 132.918C231.249 132.918 226.796 136.769 226.555 143.869C226.315 150.969 229.083 153.256 229.083 153.256Z" fill="#FFE68C"/>
<path d="M214.762 161.439C214.762 161.439 219.696 157.107 224.87 158.07C229.925 159.032 233.294 163.485 233.294 163.485C233.294 163.485 229.564 166.614 223.667 165.892C217.77 165.17 214.762 161.439 214.762 161.439Z" fill="#FFE68C"/>
<path d="M213.799 160.958C213.799 160.958 219.214 158.671 221.621 153.496C224.028 148.322 222.825 143.027 222.825 143.027C222.825 143.027 215.965 145.434 213.318 150.729C210.67 156.024 213.799 160.958 213.799 160.958Z" fill="#FFE68C"/>
<path d="M200.2 162.041C202.46 162.041 204.292 160.209 204.292 157.949C204.292 155.69 202.46 153.858 200.2 153.858C197.941 153.858 196.109 155.69 196.109 157.949C196.109 160.209 197.941 162.041 200.2 162.041Z" fill="#FFE68C"/>
</svg>
