<svg width="275" height="209" viewBox="0 0 275 209" fill="none" xmlns="http://www.w3.org/2000/svg">
<rect width="275" height="209" fill="#C4976E"/>
<path d="M162.16 115.286L137.5 139.946L112.84 115.286C99.2201 101.666 99.2201 79.5842 112.84 65.9647C126.459 52.3451 148.541 52.3451 162.16 65.9647C175.78 79.5842 175.78 101.666 162.16 115.286ZM137.5 106.125C146.06 106.125 153 99.1853 153 90.625C153 82.0646 146.06 75.125 137.5 75.125C128.94 75.125 122 82.0646 122 90.625C122 99.1853 128.94 106.125 137.5 106.125ZM137.5 98.375C133.22 98.375 129.75 94.9053 129.75 90.625C129.75 86.3448 133.22 82.875 137.5 82.875C141.78 82.875 145.25 86.3448 145.25 90.625C145.25 94.9053 141.78 98.375 137.5 98.375Z" fill="#FFE68C"/>
<path d="M121 136C100.65 137.029 86 139.908 86 143.298C86 147.552 109.057 151 137.5 151C165.943 151 189 147.552 189 143.298C189 139.908 174.35 137.029 154 136" stroke="#FFE68C" stroke-width="3" stroke-linecap="round"/>
</svg>
