<svg width="21" height="21" viewBox="0 0 21 21" fill="none" xmlns="http://www.w3.org/2000/svg">
<path fill-rule="evenodd" clip-rule="evenodd" d="M2.88512 4.82387C3.0214 4.62895 3.24738 4.5 3.50009 4.5H17.5001C17.7528 4.5 17.9788 4.62895 18.115 4.82387L10.5001 10.1543L2.88512 4.82387ZM0.750143 5.23222C0.749974 5.24223 0.749955 5.25224 0.750086 5.26225V15.75C0.750086 17.2648 1.9853 18.5 3.50009 18.5H17.5001C19.0149 18.5 20.2501 17.2648 20.2501 15.75V5.26222C20.2502 5.252 20.2502 5.24177 20.25 5.23154C20.24 3.72519 19.0087 2.5 17.5001 2.5H3.50009C1.99123 2.5 0.759764 3.72556 0.750143 5.23222ZM18.2501 7.17066V15.75C18.2501 16.1602 17.9103 16.5 17.5001 16.5H3.50009C3.08987 16.5 2.75009 16.1602 2.75009 15.75V7.17066L9.92662 12.1942C10.2709 12.4353 10.7292 12.4353 11.0735 12.1942L18.2501 7.17066Z" fill="white"/>
</svg>
