<svg width="21" height="20" viewBox="0 0 21 20" fill="none" xmlns="http://www.w3.org/2000/svg">
<g clip-path="url(#clip0_145_669)">
<path d="M8.8929 19.1667C8.8929 19.6275 8.5204 20 8.05957 20H4.72624C2.42874 20 0.55957 18.1308 0.55957 15.8333V4.16667C0.55957 1.86917 2.42874 0 4.72624 0H11.3929C13.6904 0 15.5596 1.86917 15.5596 4.16667V5.83333C15.5596 6.29417 15.1871 6.66667 14.7262 6.66667C14.2654 6.66667 13.8929 6.29417 13.8929 5.83333V4.16667C13.8929 2.78833 12.7712 1.66667 11.3929 1.66667H4.72624C3.3479 1.66667 2.22624 2.78833 2.22624 4.16667V15.8333C2.22624 17.2117 3.3479 18.3333 4.72624 18.3333H8.05957C8.5204 18.3333 8.8929 18.7058 8.8929 19.1667ZM12.2262 5C12.2262 4.53917 11.8537 4.16667 11.3929 4.16667H4.72624C4.2654 4.16667 3.8929 4.53917 3.8929 5C3.8929 5.46083 4.2654 5.83333 4.72624 5.83333H11.3929C11.8537 5.83333 12.2262 5.46083 12.2262 5ZM8.8929 9.16667C8.8929 8.70583 8.5204 8.33333 8.05957 8.33333H4.72624C4.2654 8.33333 3.8929 8.70583 3.8929 9.16667C3.8929 9.6275 4.2654 10 4.72624 10H8.05957C8.5204 10 8.8929 9.6275 8.8929 9.16667ZM4.72624 12.5C4.2654 12.5 3.8929 12.8725 3.8929 13.3333C3.8929 13.7942 4.2654 14.1667 4.72624 14.1667H6.3929C6.85374 14.1667 7.22624 13.7942 7.22624 13.3333C7.22624 12.8725 6.85374 12.5 6.3929 12.5H4.72624ZM20.5596 14.1667C20.5596 17.3825 17.9421 20 14.7262 20C11.5104 20 8.8929 17.3825 8.8929 14.1667C8.8929 10.9508 11.5104 8.33333 14.7262 8.33333C17.9421 8.33333 20.5596 10.9508 20.5596 14.1667ZM18.8929 14.1667C18.8929 11.8692 17.0237 10 14.7262 10C12.4287 10 10.5596 11.8692 10.5596 14.1667C10.5596 16.4642 12.4287 18.3333 14.7262 18.3333C17.0237 18.3333 18.8929 16.4642 18.8929 14.1667ZM16.2329 13.1325L14.3804 14.9108C14.2604 15.0283 14.0646 15.0308 13.9454 14.9125L13.0029 13.9892C12.6729 13.6658 12.1462 13.6708 11.8246 14.0008C11.5021 14.33 11.5071 14.8567 11.8362 15.1792L12.7796 16.1033C13.1629 16.4775 13.6646 16.665 14.1654 16.665C14.6662 16.665 15.1662 16.4775 15.5429 16.1058L17.3871 14.3358C17.7187 14.0167 17.7296 13.4892 17.4112 13.1575C17.0921 12.8242 16.5637 12.815 16.2329 13.1333V13.1325Z" fill="black"/>
</g>
<defs>
<clipPath id="clip0_145_669">
<rect width="20" height="20" fill="white" transform="translate(0.55957)"/>
</clipPath>
</defs>
</svg>
