<svg width="197" height="53" viewBox="0 0 197 53" fill="none" xmlns="http://www.w3.org/2000/svg">
<path d="M0 5C0 2.23858 2.23858 0 5 0H96C98.7614 0 101 2.23858 101 5V48C101 50.7614 98.7614 53 96 53H5C2.23857 53 0 50.7614 0 48V5Z"/>
<path d="M109.798 14.8481C109.798 12.7144 110.339 11.0197 111.421 9.76416C112.504 8.50863 114.065 7.88086 116.106 7.88086C117.282 7.88086 118.277 8.06331 119.094 8.42822C119.91 8.79313 120.485 9.32194 120.819 10.0146C121.042 10.4723 121.005 10.7816 120.708 10.9424L119.595 11.5361C119.205 11.7464 118.883 11.6289 118.63 11.1836C118.469 10.8991 118.169 10.6424 117.73 10.4136C117.297 10.1847 116.787 10.0703 116.199 10.0703C114.9 10.0703 113.991 10.4816 113.472 11.3042C112.952 12.1206 112.692 13.3019 112.692 14.8481C112.692 16.3944 112.952 17.5788 113.472 18.4014C113.991 19.2178 114.9 19.626 116.199 19.626C116.898 19.626 117.486 19.4683 117.962 19.1528C118.444 18.8374 118.778 18.5374 118.964 18.2529C119.267 17.7891 119.589 17.6715 119.929 17.9004L121.042 18.6426C121.345 18.8467 121.376 19.1559 121.135 19.5703C120.776 20.1888 120.161 20.7176 119.289 21.1567C118.417 21.5959 117.356 21.8154 116.106 21.8154C114.096 21.8154 112.541 21.1877 111.44 19.9321C110.345 18.6766 109.798 16.9819 109.798 14.8481Z" fill="#B78A63"/>
<path d="M122.897 16.6294C122.897 15.0522 123.303 13.8153 124.113 12.9185C124.929 12.0216 126.141 11.5732 127.75 11.5732C129.358 11.5732 130.567 12.0216 131.377 12.9185C132.193 13.8153 132.602 15.0522 132.602 16.6294C132.602 18.2065 132.193 19.4435 131.377 20.3403C130.567 21.2371 129.358 21.6855 127.75 21.6855C126.141 21.6855 124.929 21.2371 124.113 20.3403C123.303 19.4435 122.897 18.2065 122.897 16.6294ZM125.644 16.6294C125.644 17.8045 125.823 18.6395 126.182 19.1343C126.547 19.6229 127.069 19.8672 127.75 19.8672C128.43 19.8672 128.949 19.6229 129.308 19.1343C129.673 18.6395 129.855 17.8045 129.855 16.6294C129.855 15.4543 129.673 14.6224 129.308 14.1338C128.949 13.639 128.43 13.3916 127.75 13.3916C127.069 13.3916 126.547 13.639 126.182 14.1338C125.823 14.6224 125.644 15.4543 125.644 16.6294Z" fill="#B78A63"/>
<path d="M135.162 21.5C134.791 21.5 134.605 21.3145 134.605 20.9434V9.98682C134.605 9.7085 134.67 9.45492 134.8 9.22607L135.515 7.97363C135.651 7.73861 135.812 7.62109 135.997 7.62109H136.646C137.018 7.62109 137.203 7.80664 137.203 8.17773V20.9434C137.203 21.3145 137.018 21.5 136.646 21.5H135.162Z" fill="#B78A63"/>
<path d="M140.283 21.5C139.912 21.5 139.727 21.3145 139.727 20.9434V9.98682C139.727 9.7085 139.792 9.45492 139.921 9.22607L140.636 7.97363C140.772 7.73861 140.933 7.62109 141.118 7.62109H141.768C142.139 7.62109 142.324 7.80664 142.324 8.17773V20.9434C142.324 21.3145 142.139 21.5 141.768 21.5H140.283Z" fill="#B78A63"/>
<path d="M144.328 16.6294C144.328 15.0646 144.718 13.8307 145.497 12.9277C146.283 12.0247 147.39 11.5732 148.818 11.5732C150.476 11.5732 151.707 12 152.511 12.8535C153.315 13.707 153.717 15.0801 153.717 16.9727C153.717 17.3438 153.544 17.5293 153.197 17.5293H147.074C147.173 18.556 147.427 19.2023 147.835 19.4683C148.243 19.7342 148.716 19.8672 149.254 19.8672C149.768 19.8672 150.16 19.7992 150.433 19.6631C150.705 19.527 150.934 19.3415 151.119 19.1064C151.329 18.8343 151.589 18.791 151.898 18.9766L152.826 19.5425C153.191 19.7651 153.244 20.0311 152.984 20.3403C152.607 20.7918 152.164 21.1289 151.657 21.3516C151.15 21.5742 150.349 21.6855 149.254 21.6855C147.479 21.6855 146.215 21.234 145.46 20.3311C144.705 19.4281 144.328 18.1942 144.328 16.6294ZM147.083 15.6738H151.119C151.119 15.0059 150.952 14.4616 150.618 14.041C150.284 13.6143 149.752 13.4009 149.022 13.4009C148.441 13.4009 147.98 13.605 147.64 14.0132C147.3 14.4152 147.114 14.9688 147.083 15.6738Z" fill="#B78A63"/>
<path d="M155.22 16.6294C155.22 15.0522 155.616 13.8153 156.407 12.9185C157.199 12.0216 158.414 11.5732 160.053 11.5732C161.012 11.5732 161.757 11.7 162.289 11.9536C162.821 12.2072 163.248 12.5783 163.569 13.0669C163.761 13.3576 163.73 13.5864 163.477 13.7534L162.493 14.4028C162.215 14.5884 161.971 14.5173 161.76 14.1895C161.655 14.0286 161.454 13.8555 161.157 13.6699C160.86 13.4844 160.492 13.3916 160.053 13.3916C159.354 13.3916 158.832 13.639 158.485 14.1338C158.139 14.6224 157.966 15.4543 157.966 16.6294C157.966 17.8045 158.139 18.6395 158.485 19.1343C158.832 19.6229 159.354 19.8672 160.053 19.8672C160.554 19.8672 160.959 19.762 161.269 19.5518C161.578 19.3415 161.868 19.0693 162.141 18.7354C162.376 18.4508 162.623 18.4106 162.883 18.6147L163.746 19.292C164.005 19.4961 164.021 19.7682 163.792 20.1084C163.551 20.4671 163.139 20.8197 162.558 21.166C161.983 21.5124 161.148 21.6855 160.053 21.6855C158.414 21.6855 157.199 21.2371 156.407 20.3403C155.616 19.4435 155.22 18.2065 155.22 16.6294Z" fill="#B78A63"/>
<path d="M165.49 13.6143C165.125 13.6143 164.942 13.4596 164.942 13.1504V12.2227C164.942 11.9134 165.125 11.7588 165.49 11.7588H166.121V11.4341C166.121 11.1558 166.186 10.9022 166.315 10.6733L167.03 9.4209C167.166 9.18587 167.327 9.06836 167.512 9.06836H168.162C168.533 9.06836 168.718 9.25391 168.718 9.625V11.7588H170.221C170.586 11.7588 170.769 11.9134 170.769 12.2227V13.1504C170.769 13.4596 170.586 13.6143 170.221 13.6143H168.718V18.2158C168.718 18.8467 168.762 19.3013 168.848 19.5796C168.941 19.8517 169.176 19.9878 169.553 19.9878C169.745 19.9878 169.961 19.9569 170.203 19.895C170.444 19.827 170.632 19.762 170.769 19.7002C170.985 19.6012 171.127 19.6724 171.195 19.9136L171.474 20.9712C171.529 21.1815 171.449 21.3361 171.232 21.4351C171.028 21.5278 170.747 21.6113 170.388 21.6855C170.036 21.766 169.68 21.8062 169.321 21.8062C168.437 21.8062 167.682 21.6237 167.058 21.2588C166.433 20.8939 166.121 20.1424 166.121 19.0044V13.6143H165.49Z" fill="#B78A63"/>
<path d="M173.774 21.5C173.403 21.5 173.218 21.3145 173.218 20.9434V12.3154C173.218 11.9443 173.403 11.7588 173.774 11.7588H175.259C175.63 11.7588 175.815 11.9443 175.815 12.3154V20.9434C175.815 21.3145 175.63 21.5 175.259 21.5H173.774ZM173.774 10.3301C173.403 10.3301 173.218 10.1445 173.218 9.77344V8.58594C173.218 8.21484 173.403 8.0293 173.774 8.0293H175.259C175.63 8.0293 175.815 8.21484 175.815 8.58594V9.77344C175.815 10.1445 175.63 10.3301 175.259 10.3301H173.774Z" fill="#B78A63"/>
<path d="M177.699 12.4824C177.544 12 177.646 11.7588 178.005 11.7588H179.666C179.956 11.7588 180.142 11.9165 180.222 12.2319L181.66 17.6685C181.741 17.9715 181.805 18.2715 181.855 18.5684C181.911 18.8652 181.945 19.1064 181.957 19.292H182.013C182.025 19.1064 182.056 18.8652 182.105 18.5684C182.161 18.2715 182.229 17.9715 182.31 17.6685L183.748 12.2319C183.828 11.9165 184.014 11.7588 184.304 11.7588H185.965C186.324 11.7588 186.426 12 186.271 12.4824L183.581 20.8784C183.451 21.2928 183.225 21.5 182.903 21.5H181.066C180.745 21.5 180.519 21.2928 180.389 20.8784L177.699 12.4824Z" fill="#B78A63"/>
<path d="M187.171 16.6294C187.171 15.0646 187.561 13.8307 188.34 12.9277C189.125 12.0247 190.232 11.5732 191.661 11.5732C193.319 11.5732 194.549 12 195.354 12.8535C196.158 13.707 196.56 15.0801 196.56 16.9727C196.56 17.3438 196.386 17.5293 196.04 17.5293H189.917C190.016 18.556 190.27 19.2023 190.678 19.4683C191.086 19.7342 191.559 19.8672 192.097 19.8672C192.611 19.8672 193.003 19.7992 193.275 19.6631C193.548 19.527 193.776 19.3415 193.962 19.1064C194.172 18.8343 194.432 18.791 194.741 18.9766L195.669 19.5425C196.034 19.7651 196.086 20.0311 195.827 20.3403C195.449 20.7918 195.007 21.1289 194.5 21.3516C193.993 21.5742 193.192 21.6855 192.097 21.6855C190.322 21.6855 189.057 21.234 188.303 20.3311C187.548 19.4281 187.171 18.1942 187.171 16.6294ZM189.926 15.6738H193.962C193.962 15.0059 193.795 14.4616 193.461 14.041C193.127 13.6143 192.595 13.4009 191.865 13.4009C191.284 13.4009 190.823 13.605 190.483 14.0132C190.143 14.4152 189.957 14.9688 189.926 15.6738Z" fill="#B78A63"/>
<path d="M111.134 42.5C110.701 42.5 110.484 42.2681 110.484 41.8042V29.8921C110.484 29.4282 110.701 29.1963 111.134 29.1963H113.824C114.183 29.1963 114.44 29.4437 114.594 29.9385L117.108 38.0747C117.22 38.4272 117.297 38.7179 117.34 38.9468C117.384 39.1694 117.421 39.4354 117.452 39.7446H117.507C117.538 39.4354 117.575 39.1694 117.619 38.9468C117.662 38.7179 117.739 38.4272 117.851 38.0747L120.365 29.9385C120.519 29.4437 120.776 29.1963 121.135 29.1963H123.825C124.258 29.1963 124.475 29.4282 124.475 29.8921V41.8042C124.475 42.2681 124.258 42.5 123.825 42.5H122.415C121.982 42.5 121.766 42.2681 121.766 41.8042V34.1411C121.766 33.77 121.781 33.3989 121.812 33.0278H121.747L119.066 41.7485C118.911 42.2495 118.645 42.5 118.268 42.5H116.691C116.314 42.5 116.048 42.2495 115.893 41.7485L113.212 33.0278H113.147C113.178 33.3989 113.193 33.77 113.193 34.1411V41.8042C113.193 42.2681 112.977 42.5 112.544 42.5H111.134Z" fill="#B78A63"/>
<path d="M126.701 37.6294C126.701 36.0522 127.106 34.8153 127.917 33.9185C128.733 33.0216 129.945 32.5732 131.553 32.5732C133.161 32.5732 134.37 33.0216 135.181 33.9185C135.997 34.8153 136.405 36.0522 136.405 37.6294C136.405 39.2065 135.997 40.4435 135.181 41.3403C134.37 42.2371 133.161 42.6855 131.553 42.6855C129.945 42.6855 128.733 42.2371 127.917 41.3403C127.106 40.4435 126.701 39.2065 126.701 37.6294ZM129.447 37.6294C129.447 38.8045 129.627 39.6395 129.985 40.1343C130.35 40.6229 130.873 40.8672 131.553 40.8672C132.234 40.8672 132.753 40.6229 133.112 40.1343C133.477 39.6395 133.659 38.8045 133.659 37.6294C133.659 36.4543 133.477 35.6224 133.112 35.1338C132.753 34.639 132.234 34.3916 131.553 34.3916C130.873 34.3916 130.35 34.639 129.985 35.1338C129.627 35.6224 129.447 36.4543 129.447 37.6294Z" fill="#B78A63"/>
<path d="M138.966 42.5C138.595 42.5 138.409 42.3145 138.409 41.9434V33.3154C138.409 32.9443 138.595 32.7588 138.966 32.7588H140.432C140.803 32.7588 140.988 32.9443 140.988 33.3154V33.8535H141.025C141.31 33.3649 141.672 33.0309 142.111 32.8516C142.55 32.666 143.079 32.5732 143.697 32.5732C144.662 32.5732 145.46 32.8763 146.091 33.4824C146.722 34.0885 147.037 35.1956 147.037 36.8037V41.9434C147.037 42.3145 146.852 42.5 146.48 42.5H144.996C144.625 42.5 144.439 42.3145 144.439 41.9434V37.4717C144.439 36.1234 144.347 35.2729 144.161 34.9204C143.976 34.5679 143.577 34.3916 142.964 34.3916C142.315 34.3916 141.826 34.6452 141.499 35.1523C141.171 35.6533 141.007 36.6986 141.007 38.2881V41.9434C141.007 42.3145 140.821 42.5 140.45 42.5H138.966Z" fill="#B78A63"/>
<path d="M149.022 37.6294C149.022 36.2687 149.316 35.0874 149.904 34.0854C150.498 33.0773 151.521 32.5732 152.975 32.5732C153.531 32.5732 154.007 32.6536 154.403 32.8145C154.799 32.9753 155.158 33.3216 155.479 33.8535H155.517L155.554 33.3154C155.578 32.9443 155.745 32.7588 156.055 32.7588H157.521C157.892 32.7588 158.077 32.9443 158.077 33.3154V42.3979C158.077 43.9132 157.669 44.9585 156.853 45.5337C156.036 46.1089 154.855 46.3965 153.309 46.3965C152.653 46.3965 152.047 46.3625 151.49 46.2944C150.934 46.2264 150.371 46.0563 149.802 45.7842C149.505 45.6419 149.455 45.3729 149.653 44.9771L149.987 44.3091C150.123 44.0369 150.349 43.9751 150.665 44.1235C150.918 44.241 151.23 44.3462 151.602 44.439C151.979 44.5317 152.455 44.5781 153.03 44.5781C153.822 44.5781 154.428 44.4297 154.849 44.1328C155.269 43.8421 155.479 43.202 155.479 42.2124V42.0547C155.479 41.8073 155.492 41.5599 155.517 41.3125H155.479C155.158 41.8444 154.799 42.1908 154.403 42.3516C154.007 42.5124 153.531 42.5928 152.975 42.5928C151.521 42.5928 150.498 42.0918 149.904 41.0898C149.316 40.0817 149.022 38.9282 149.022 37.6294ZM151.769 37.6294C151.769 38.5571 151.895 39.3148 152.149 39.9023C152.409 40.4837 152.956 40.7744 153.791 40.7744C154.255 40.7744 154.651 40.5146 154.979 39.9951C155.312 39.4694 155.479 38.7891 155.479 37.9541V37.2119C155.479 36.377 155.312 35.6997 154.979 35.1802C154.651 34.6545 154.255 34.3916 153.791 34.3916C152.956 34.3916 152.409 34.6854 152.149 35.2729C151.895 35.8543 151.769 36.6398 151.769 37.6294Z" fill="#B78A63"/>
<path d="M160.582 38.4551V33.3154C160.582 32.9443 160.768 32.7588 161.139 32.7588H162.623C162.994 32.7588 163.18 32.9443 163.18 33.3154V37.7871C163.18 39.1354 163.272 39.9858 163.458 40.3384C163.644 40.6909 164.033 40.8672 164.627 40.8672C165.258 40.8672 165.737 40.6167 166.065 40.1157C166.393 39.6086 166.557 38.5602 166.557 36.9707V33.3154C166.557 32.9443 166.742 32.7588 167.113 32.7588H168.598C168.969 32.7588 169.154 32.9443 169.154 33.3154V41.9434C169.154 42.3145 168.969 42.5 168.598 42.5H167.132C166.761 42.5 166.575 42.3145 166.575 41.9434V41.4053H166.538C166.254 41.8939 165.892 42.231 165.453 42.4165C165.014 42.5959 164.494 42.6855 163.894 42.6855C162.948 42.6855 162.159 42.3825 161.528 41.7764C160.897 41.1702 160.582 40.0632 160.582 38.4551Z" fill="#B78A63"/>
<path d="M172.234 42.5C171.863 42.5 171.678 42.3145 171.678 41.9434V30.9868C171.678 30.7085 171.743 30.4549 171.873 30.2261L172.587 28.9736C172.723 28.7386 172.884 28.6211 173.069 28.6211H173.719C174.09 28.6211 174.275 28.8066 174.275 29.1777V41.9434C174.275 42.3145 174.09 42.5 173.719 42.5H172.234Z" fill="#B78A63"/>
<path d="M176.78 38.4551V33.3154C176.78 32.9443 176.966 32.7588 177.337 32.7588H178.821C179.192 32.7588 179.378 32.9443 179.378 33.3154V37.7871C179.378 39.1354 179.471 39.9858 179.656 40.3384C179.842 40.6909 180.231 40.8672 180.825 40.8672C181.456 40.8672 181.935 40.6167 182.263 40.1157C182.591 39.6086 182.755 38.5602 182.755 36.9707V33.3154C182.755 32.9443 182.94 32.7588 183.312 32.7588H184.796C185.167 32.7588 185.353 32.9443 185.353 33.3154V41.9434C185.353 42.3145 185.167 42.5 184.796 42.5H183.33C182.959 42.5 182.773 42.3145 182.773 41.9434V41.4053H182.736C182.452 41.8939 182.09 42.231 181.651 42.4165C181.212 42.5959 180.692 42.6855 180.092 42.6855C179.146 42.6855 178.357 42.3825 177.727 41.7764C177.096 41.1702 176.78 40.0632 176.78 38.4551Z" fill="#B78A63"/>
</svg>
