<svg width="20" height="20" viewBox="0 0 20 20" fill="none" xmlns="http://www.w3.org/2000/svg">
<path d="M8.33333 19.1667C8.33333 19.6275 7.96083 20 7.5 20H4.16667C1.86917 20 0 18.1308 0 15.8333V4.16667C0 1.86917 1.86917 0 4.16667 0H10.8333C13.1308 0 15 1.86917 15 4.16667V5.83333C15 6.29417 14.6275 6.66667 14.1667 6.66667C13.7058 6.66667 13.3333 6.29417 13.3333 5.83333V4.16667C13.3333 2.78833 12.2117 1.66667 10.8333 1.66667H4.16667C2.78833 1.66667 1.66667 2.78833 1.66667 4.16667V15.8333C1.66667 17.2117 2.78833 18.3333 4.16667 18.3333H7.5C7.96083 18.3333 8.33333 18.7058 8.33333 19.1667ZM11.6667 5C11.6667 4.53917 11.2942 4.16667 10.8333 4.16667H4.16667C3.70583 4.16667 3.33333 4.53917 3.33333 5C3.33333 5.46083 3.70583 5.83333 4.16667 5.83333H10.8333C11.2942 5.83333 11.6667 5.46083 11.6667 5ZM8.33333 9.16667C8.33333 8.70583 7.96083 8.33333 7.5 8.33333H4.16667C3.70583 8.33333 3.33333 8.70583 3.33333 9.16667C3.33333 9.6275 3.70583 10 4.16667 10H7.5C7.96083 10 8.33333 9.6275 8.33333 9.16667ZM4.16667 12.5C3.70583 12.5 3.33333 12.8725 3.33333 13.3333C3.33333 13.7942 3.70583 14.1667 4.16667 14.1667H5.83333C6.29417 14.1667 6.66667 13.7942 6.66667 13.3333C6.66667 12.8725 6.29417 12.5 5.83333 12.5H4.16667ZM20 14.1667C20 17.3825 17.3825 20 14.1667 20C10.9508 20 8.33333 17.3825 8.33333 14.1667C8.33333 10.9508 10.9508 8.33333 14.1667 8.33333C17.3825 8.33333 20 10.9508 20 14.1667ZM18.3333 14.1667C18.3333 11.8692 16.4642 10 14.1667 10C11.8692 10 10 11.8692 10 14.1667C10 16.4642 11.8692 18.3333 14.1667 18.3333C16.4642 18.3333 18.3333 16.4642 18.3333 14.1667ZM15.6733 13.1325L13.8208 14.9108C13.7008 15.0283 13.505 15.0308 13.3858 14.9125L12.4433 13.9892C12.1133 13.6658 11.5867 13.6708 11.265 14.0008C10.9425 14.33 10.9475 14.8567 11.2767 15.1792L12.22 16.1033C12.6033 16.4775 13.105 16.665 13.6058 16.665C14.1067 16.665 14.6067 16.4775 14.9833 16.1058L16.8275 14.3358C17.1592 14.0167 17.17 13.4892 16.8517 13.1575C16.5325 12.8242 16.0042 12.815 15.6733 13.1333V13.1325Z" fill="white"/>
</svg>
